G04 #@! TF.GenerationSoftware,KiCad,Pcbnew,(5.0.2)-1*
G04 #@! TF.CreationDate,2019-03-06T20:32:53+00:00*
G04 #@! TF.ProjectId,distanced,64697374-616e-4636-9564-2e6b69636164,rev?*
G04 #@! TF.SameCoordinates,Original*
G04 #@! TF.FileFunction,Copper,L1,Top*
G04 #@! TF.FilePolarity,Positive*
%FSLAX46Y46*%
G04 Gerber Fmt 4.6, Leading zero omitted, Abs format (unit mm)*
G04 Created by KiCad (PCBNEW (5.0.2)-1) date 06/03/2019 20:32:53*
%MOMM*%
%LPD*%
G01*
G04 APERTURE LIST*
G04 #@! TA.AperFunction,NonConductor*
%ADD10C,0.300000*%
G04 #@! TD*
G04 #@! TA.AperFunction,SMDPad,CuDef*
%ADD11R,0.500000X0.500000*%
G04 #@! TD*
G04 #@! TA.AperFunction,ComponentPad*
%ADD12R,1.700000X1.700000*%
G04 #@! TD*
G04 #@! TA.AperFunction,ComponentPad*
%ADD13O,1.700000X1.700000*%
G04 #@! TD*
G04 #@! TA.AperFunction,ComponentPad*
%ADD14C,6.400000*%
G04 #@! TD*
G04 #@! TA.AperFunction,SMDPad,CuDef*
%ADD15R,0.500000X0.600000*%
G04 #@! TD*
G04 #@! TA.AperFunction,SMDPad,CuDef*
%ADD16R,0.600000X0.400000*%
G04 #@! TD*
G04 #@! TA.AperFunction,SMDPad,CuDef*
%ADD17R,0.400000X0.600000*%
G04 #@! TD*
G04 #@! TA.AperFunction,SMDPad,CuDef*
%ADD18R,0.700000X0.600000*%
G04 #@! TD*
G04 #@! TA.AperFunction,SMDPad,CuDef*
%ADD19R,1.300000X1.550000*%
G04 #@! TD*
G04 #@! TA.AperFunction,SMDPad,CuDef*
%ADD20R,0.800000X0.600000*%
G04 #@! TD*
G04 #@! TA.AperFunction,SMDPad,CuDef*
%ADD21R,0.600000X0.500000*%
G04 #@! TD*
G04 #@! TA.AperFunction,ViaPad*
%ADD22C,0.600000*%
G04 #@! TD*
G04 #@! TA.AperFunction,Conductor*
%ADD23C,0.300000*%
G04 #@! TD*
G04 #@! TA.AperFunction,Conductor*
%ADD24C,0.600000*%
G04 #@! TD*
G04 #@! TA.AperFunction,Conductor*
%ADD25C,0.500000*%
G04 #@! TD*
G04 #@! TA.AperFunction,Conductor*
%ADD26C,0.250000*%
G04 #@! TD*
G04 APERTURE END LIST*
D10*
X160390000Y-95878571D02*
X160390000Y-97378571D01*
X160390000Y-95950000D02*
X160532857Y-95878571D01*
X160818571Y-95878571D01*
X160961428Y-95950000D01*
X161032857Y-96021428D01*
X161104285Y-96164285D01*
X161104285Y-96592857D01*
X161032857Y-96735714D01*
X160961428Y-96807142D01*
X160818571Y-96878571D01*
X160532857Y-96878571D01*
X160390000Y-96807142D01*
X161747142Y-95878571D02*
X161747142Y-97378571D01*
X161747142Y-95950000D02*
X161890000Y-95878571D01*
X162175714Y-95878571D01*
X162318571Y-95950000D01*
X162390000Y-96021428D01*
X162461428Y-96164285D01*
X162461428Y-96592857D01*
X162390000Y-96735714D01*
X162318571Y-96807142D01*
X162175714Y-96878571D01*
X161890000Y-96878571D01*
X161747142Y-96807142D01*
D11*
G04 #@! TO.P,LSR2,1*
G04 #@! TO.N,+2V8*
X147280000Y-90556000D03*
G04 #@! TO.P,LSR2,2*
G04 #@! TO.N,GNDREF*
X147280000Y-89756000D03*
G04 #@! TO.P,LSR2,3*
X147280000Y-88956000D03*
G04 #@! TO.P,LSR2,4*
X147280000Y-88156000D03*
G04 #@! TO.P,LSR2,5*
G04 #@! TO.N,Net-(D4-Pad2)*
X147280000Y-87356000D03*
G04 #@! TO.P,LSR2,6*
G04 #@! TO.N,GNDREF*
X148080000Y-87356000D03*
G04 #@! TO.P,LSR2,7*
G04 #@! TO.N,D4*
X148880000Y-87356000D03*
G04 #@! TO.P,LSR2,8*
G04 #@! TO.N,N/C*
X148880000Y-88156000D03*
G04 #@! TO.P,LSR2,9*
G04 #@! TO.N,2.8_SDA*
X148880000Y-88956000D03*
G04 #@! TO.P,LSR2,10*
G04 #@! TO.N,2.8_SCL*
X148880000Y-89756000D03*
G04 #@! TO.P,LSR2,11*
G04 #@! TO.N,+2V8*
X148880000Y-90556000D03*
G04 #@! TO.P,LSR2,12*
G04 #@! TO.N,GNDREF*
X148080000Y-90556000D03*
G04 #@! TD*
D12*
G04 #@! TO.P,J2,1*
G04 #@! TO.N,D12*
X138500000Y-81500000D03*
D13*
G04 #@! TO.P,J2,2*
G04 #@! TO.N,RAW*
X135960000Y-81500000D03*
G04 #@! TO.P,J2,3*
G04 #@! TO.N,D13*
X138500000Y-84040000D03*
G04 #@! TO.P,J2,4*
G04 #@! TO.N,D11*
X135960000Y-84040000D03*
G04 #@! TO.P,J2,5*
G04 #@! TO.N,DRT*
X138500000Y-86580000D03*
G04 #@! TO.P,J2,6*
G04 #@! TO.N,GNDREF*
X135960000Y-86580000D03*
G04 #@! TD*
D12*
G04 #@! TO.P,E1,1*
G04 #@! TO.N,RAW*
X138500000Y-91000000D03*
D13*
G04 #@! TO.P,E1,2*
G04 #@! TO.N,B*
X135960000Y-91000000D03*
G04 #@! TO.P,E1,3*
G04 #@! TO.N,GNDREF*
X138500000Y-93540000D03*
G04 #@! TO.P,E1,4*
G04 #@! TO.N,A*
X135960000Y-93540000D03*
G04 #@! TD*
D12*
G04 #@! TO.P,W1,1*
G04 #@! TO.N,RAW*
X138500000Y-75000000D03*
D13*
G04 #@! TO.P,W1,2*
G04 #@! TO.N,B*
X135960000Y-75000000D03*
G04 #@! TO.P,W1,3*
G04 #@! TO.N,GNDREF*
X138500000Y-77540000D03*
G04 #@! TO.P,W1,4*
G04 #@! TO.N,A*
X135960000Y-77540000D03*
G04 #@! TD*
D12*
G04 #@! TO.P,J1,1*
G04 #@! TO.N,DRT*
X161000000Y-90000000D03*
D13*
G04 #@! TO.P,J1,2*
G04 #@! TO.N,TXO*
X161000000Y-87460000D03*
G04 #@! TO.P,J1,3*
G04 #@! TO.N,RXI*
X161000000Y-84920000D03*
G04 #@! TO.P,J1,4*
G04 #@! TO.N,RAW*
X161000000Y-82380000D03*
G04 #@! TO.P,J1,5*
G04 #@! TO.N,GNDREF*
X161000000Y-79840000D03*
G04 #@! TO.P,J1,6*
X161000000Y-77300000D03*
G04 #@! TD*
D14*
G04 #@! TO.P,REF\002A\002A,1*
G04 #@! TO.N,N/C*
X148000000Y-99000000D03*
G04 #@! TD*
D15*
G04 #@! TO.P,C6,1*
G04 #@! TO.N,Net-(C6-Pad1)*
X158380000Y-89290000D03*
G04 #@! TO.P,C6,2*
G04 #@! TO.N,DRT*
X158380000Y-90390000D03*
G04 #@! TD*
D16*
G04 #@! TO.P,R1,1*
G04 #@! TO.N,Net-(D1-Pad1)*
X153400000Y-88650000D03*
G04 #@! TO.P,R1,2*
G04 #@! TO.N,GNDREF*
X153400000Y-87750000D03*
G04 #@! TD*
G04 #@! TO.P,R4,1*
G04 #@! TO.N,GNDREF*
X143100000Y-87850000D03*
G04 #@! TO.P,R4,2*
G04 #@! TO.N,Net-(D2-Pad1)*
X143100000Y-88750000D03*
G04 #@! TD*
D17*
G04 #@! TO.P,R5,1*
G04 #@! TO.N,+3V3*
X157480000Y-88250000D03*
G04 #@! TO.P,R5,2*
G04 #@! TO.N,Net-(C6-Pad1)*
X158380000Y-88250000D03*
G04 #@! TD*
D18*
G04 #@! TO.P,D2,2*
G04 #@! TO.N,D13*
X144500000Y-87950000D03*
G04 #@! TO.P,D2,1*
G04 #@! TO.N,Net-(D2-Pad1)*
X144500000Y-89050000D03*
G04 #@! TD*
D19*
G04 #@! TO.P,SWRST1,1*
G04 #@! TO.N,Net-(C6-Pad1)*
X150150000Y-74725000D03*
X150150000Y-82675000D03*
G04 #@! TO.P,SWRST1,2*
G04 #@! TO.N,GNDREF*
X145650000Y-74725000D03*
X145650000Y-82675000D03*
G04 #@! TD*
D20*
G04 #@! TO.P,D4,1*
G04 #@! TO.N,D3*
X146170000Y-84620000D03*
G04 #@! TO.P,D4,2*
G04 #@! TO.N,Net-(D4-Pad2)*
X146170000Y-86320000D03*
G04 #@! TD*
D18*
G04 #@! TO.P,D1,2*
G04 #@! TO.N,+3V3*
X152000000Y-87850000D03*
G04 #@! TO.P,D1,1*
G04 #@! TO.N,Net-(D1-Pad1)*
X152000000Y-88950000D03*
G04 #@! TD*
D21*
G04 #@! TO.P,C13,1*
G04 #@! TO.N,+2V8*
X148880000Y-91530000D03*
G04 #@! TO.P,C13,2*
G04 #@! TO.N,GNDREF*
X149980000Y-91530000D03*
G04 #@! TD*
G04 #@! TO.P,C14,1*
G04 #@! TO.N,+2V8*
X147280000Y-91530000D03*
G04 #@! TO.P,C14,2*
G04 #@! TO.N,GNDREF*
X146180000Y-91530000D03*
G04 #@! TD*
D16*
G04 #@! TO.P,R12,1*
G04 #@! TO.N,+2V8*
X148880000Y-85530000D03*
G04 #@! TO.P,R12,2*
G04 #@! TO.N,D4*
X148880000Y-86430000D03*
G04 #@! TD*
G04 #@! TO.P,R13,1*
G04 #@! TO.N,+2V8*
X147280000Y-85510000D03*
G04 #@! TO.P,R13,2*
G04 #@! TO.N,Net-(D4-Pad2)*
X147280000Y-86410000D03*
G04 #@! TD*
D14*
G04 #@! TO.P,REF\002A\002A,1*
G04 #@! TO.N,N/C*
X148000000Y-70000000D03*
G04 #@! TD*
D22*
G04 #@! TO.N,GNDREF*
X143625000Y-86025000D03*
X148160000Y-92310000D03*
X152020000Y-79970000D03*
X147580000Y-78820000D03*
X156520000Y-89040000D03*
X144000000Y-81510000D03*
X147410000Y-76650000D03*
X141640000Y-89080000D03*
X140110000Y-85240000D03*
X139870000Y-87150000D03*
G04 #@! TO.N,Net-(C6-Pad1)*
X153350000Y-84875000D03*
X151000000Y-76500000D03*
X155820000Y-77080000D03*
G04 #@! TO.N,D13*
X153720000Y-76600000D03*
G04 #@! TO.N,D3*
X154430000Y-79140000D03*
G04 #@! TO.N,D4*
X151630000Y-81005000D03*
G04 #@! TO.N,TXO*
X152150000Y-85600000D03*
G04 #@! TO.N,D11*
X155540000Y-73040000D03*
G04 #@! TO.N,D12*
X157670000Y-74040000D03*
G04 #@! TO.N,+3V3*
X150900000Y-86975000D03*
X157450000Y-86950000D03*
G04 #@! TO.N,+2V8*
X151830000Y-92750000D03*
G04 #@! TO.N,2.8_SDA*
X150450000Y-88930000D03*
G04 #@! TO.N,2.8_SCL*
X149810000Y-89710000D03*
G04 #@! TD*
D23*
G04 #@! TO.N,GNDREF*
X148080000Y-90556000D02*
X148080000Y-92230000D01*
X148080000Y-92230000D02*
X148160000Y-92310000D01*
D24*
G04 #@! TO.N,RAW*
X138500000Y-89550000D02*
X138500000Y-91000000D01*
X137525000Y-88575000D02*
X138500000Y-89550000D01*
X135225000Y-88575000D02*
X137525000Y-88575000D01*
X134525010Y-87875010D02*
X135225000Y-88575000D01*
X134525010Y-82934990D02*
X134525010Y-87875010D01*
X135960000Y-81500000D02*
X134525010Y-82934990D01*
X139950000Y-75000000D02*
X140625000Y-75675000D01*
X138500000Y-75000000D02*
X139950000Y-75000000D01*
X140625000Y-75675000D02*
X140625000Y-78125000D01*
X140625000Y-78125000D02*
X139275000Y-79475000D01*
X139275000Y-79475000D02*
X136275000Y-79475000D01*
X135960000Y-79790000D02*
X135960000Y-81500000D01*
X136275000Y-79475000D02*
X135960000Y-79790000D01*
D25*
X162470000Y-83850000D02*
X162470000Y-92070000D01*
X161000000Y-82380000D02*
X162470000Y-83850000D01*
X162470000Y-92070000D02*
X160480000Y-94060000D01*
X139850000Y-91000000D02*
X138500000Y-91000000D01*
X142910000Y-94060000D02*
X139850000Y-91000000D01*
X160480000Y-94060000D02*
X142910000Y-94060000D01*
D23*
G04 #@! TO.N,Net-(C6-Pad1)*
X152225000Y-84875000D02*
X153350000Y-84875000D01*
X150150000Y-82675000D02*
X150150000Y-82800000D01*
X150150000Y-82800000D02*
X152225000Y-84875000D01*
D26*
X158380000Y-88250000D02*
X158380000Y-89290000D01*
X158380000Y-86960000D02*
X157700000Y-86280000D01*
X158380000Y-88250000D02*
X158380000Y-86960000D01*
X150150000Y-83700000D02*
X150150000Y-82675000D01*
X150150000Y-84451002D02*
X150150000Y-83700000D01*
X151978998Y-86280000D02*
X150150000Y-84451002D01*
X157700000Y-86280000D02*
X151978998Y-86280000D01*
X150150000Y-74725000D02*
X150150000Y-75650000D01*
X150150000Y-75650000D02*
X151000000Y-76500000D01*
X155820000Y-77080000D02*
X156300000Y-77560000D01*
X156300000Y-81925000D02*
X153350000Y-84875000D01*
X156300000Y-77560000D02*
X156300000Y-81925000D01*
G04 #@! TO.N,DRT*
X160610000Y-90390000D02*
X161000000Y-90000000D01*
X158380000Y-90390000D02*
X160610000Y-90390000D01*
X138500000Y-86580000D02*
X138500000Y-87880000D01*
X143955010Y-93335010D02*
X156134990Y-93335010D01*
X138500000Y-87880000D02*
X143955010Y-93335010D01*
X158380000Y-91090000D02*
X158380000Y-90390000D01*
X156134990Y-93335010D02*
X158380000Y-91090000D01*
G04 #@! TO.N,Net-(D1-Pad1)*
X153100000Y-88950000D02*
X153400000Y-88650000D01*
X152000000Y-88950000D02*
X153100000Y-88950000D01*
G04 #@! TO.N,D13*
X148761368Y-80850030D02*
X152730000Y-76881396D01*
X141689970Y-80850030D02*
X148761368Y-80850030D01*
X152730000Y-76881396D02*
X153041396Y-76570000D01*
X144500000Y-84680000D02*
X141180000Y-81360000D01*
X144500000Y-87950000D02*
X144500000Y-84680000D01*
X138500000Y-84040000D02*
X141180000Y-81360000D01*
X141180000Y-81360000D02*
X141689970Y-80850030D01*
X153041396Y-76570000D02*
X153690000Y-76570000D01*
X153690000Y-76570000D02*
X153720000Y-76600000D01*
G04 #@! TO.N,Net-(D2-Pad1)*
X143400000Y-89050000D02*
X143100000Y-88750000D01*
X144500000Y-89050000D02*
X143400000Y-89050000D01*
G04 #@! TO.N,D3*
X146820000Y-84620000D02*
X146170000Y-84620000D01*
X154430000Y-79140000D02*
X151037095Y-79140000D01*
X151037095Y-79140000D02*
X148657095Y-81520000D01*
X148657095Y-81520000D02*
X148640000Y-81520000D01*
X148640000Y-81520000D02*
X147000000Y-83160000D01*
X147000000Y-83160000D02*
X147000000Y-84440000D01*
X147000000Y-84440000D02*
X146820000Y-84620000D01*
G04 #@! TO.N,D4*
X148880000Y-87356000D02*
X148880000Y-86430000D01*
X149430000Y-86430000D02*
X149770000Y-86090000D01*
X148880000Y-86430000D02*
X149430000Y-86430000D01*
X149770000Y-86090000D02*
X149770000Y-84920000D01*
X149737793Y-81005000D02*
X149040000Y-81702793D01*
X151630000Y-81005000D02*
X149737793Y-81005000D01*
X149040000Y-84190000D02*
X149770000Y-84920000D01*
X149040000Y-81702793D02*
X149040000Y-84190000D01*
D23*
G04 #@! TO.N,TXO*
X152150000Y-85600000D02*
X157750000Y-85600000D01*
X159610000Y-87460000D02*
X161000000Y-87460000D01*
X157750000Y-85600000D02*
X159610000Y-87460000D01*
D26*
G04 #@! TO.N,D11*
X135960000Y-84040000D02*
X137220000Y-82780000D01*
X137220000Y-82780000D02*
X137220000Y-80480000D01*
X137649990Y-80050010D02*
X148429990Y-80050010D01*
X137220000Y-80480000D02*
X137649990Y-80050010D01*
X148429990Y-80050010D02*
X155440000Y-73040000D01*
X155440000Y-73040000D02*
X155540000Y-73040000D01*
G04 #@! TO.N,D12*
X139600000Y-81500000D02*
X140649980Y-80450020D01*
X138500000Y-81500000D02*
X139600000Y-81500000D01*
X148595679Y-80450020D02*
X152050000Y-76995698D01*
X140649980Y-80450020D02*
X148595679Y-80450020D01*
X152050000Y-76995698D02*
X155005698Y-74040000D01*
X155005698Y-74040000D02*
X157670000Y-74040000D01*
G04 #@! TO.N,+3V3*
X157425000Y-86975000D02*
X157450000Y-86950000D01*
X157450000Y-88220000D02*
X157480000Y-88250000D01*
X157450000Y-86950000D02*
X157450000Y-88220000D01*
X152000000Y-87300000D02*
X151675000Y-86975000D01*
X151675000Y-86975000D02*
X151480000Y-86975000D01*
X152000000Y-87850000D02*
X152000000Y-87300000D01*
X150900000Y-86975000D02*
X151480000Y-86975000D01*
X151480000Y-86975000D02*
X157425000Y-86975000D01*
D23*
G04 #@! TO.N,+2V8*
X147300000Y-85530000D02*
X147280000Y-85510000D01*
X148880000Y-85530000D02*
X147300000Y-85530000D01*
X147280000Y-85510000D02*
X145540000Y-85510000D01*
X145469999Y-85580001D02*
X145469999Y-89849999D01*
X145540000Y-85510000D02*
X145469999Y-85580001D01*
X146176000Y-90556000D02*
X147280000Y-90556000D01*
X145469999Y-89849999D02*
X146176000Y-90556000D01*
X148880000Y-90556000D02*
X148880000Y-91530000D01*
X147280000Y-90556000D02*
X147280000Y-91530000D01*
X151670000Y-92910000D02*
X151830000Y-92750000D01*
X148880000Y-92390000D02*
X149400000Y-92910000D01*
X148880000Y-91530000D02*
X148880000Y-92390000D01*
X147280000Y-91530000D02*
X147280000Y-92520000D01*
X147280000Y-92520000D02*
X147670000Y-92910000D01*
X147670000Y-92910000D02*
X149840000Y-92910000D01*
X149400000Y-92910000D02*
X149840000Y-92910000D01*
X149840000Y-92910000D02*
X151670000Y-92910000D01*
D26*
G04 #@! TO.N,2.8_SDA*
X148880000Y-88956000D02*
X150424000Y-88956000D01*
X150424000Y-88956000D02*
X150450000Y-88930000D01*
G04 #@! TO.N,2.8_SCL*
X148880000Y-89756000D02*
X149764000Y-89756000D01*
X149764000Y-89756000D02*
X149810000Y-89710000D01*
G04 #@! TO.N,Net-(D4-Pad2)*
X147190000Y-86320000D02*
X147280000Y-86410000D01*
X146170000Y-86320000D02*
X147190000Y-86320000D01*
X147280000Y-86410000D02*
X147280000Y-87356000D01*
G04 #@! TD*
D23*
G04 #@! TO.N,GNDREF*
G36*
X134642437Y-89053096D02*
X134684280Y-89115720D01*
X134932365Y-89281484D01*
X135151134Y-89325000D01*
X135224999Y-89339693D01*
X135298864Y-89325000D01*
X137214340Y-89325000D01*
X137592051Y-89702711D01*
X137474419Y-89726109D01*
X137325568Y-89825568D01*
X137226109Y-89974419D01*
X137191184Y-90150000D01*
X137191184Y-90526001D01*
X137184573Y-90492765D01*
X136897247Y-90062753D01*
X136467235Y-89775427D01*
X136088037Y-89700000D01*
X135831963Y-89700000D01*
X135452765Y-89775427D01*
X135022753Y-90062753D01*
X134735427Y-90492765D01*
X134634532Y-91000000D01*
X134735427Y-91507235D01*
X135022753Y-91937247D01*
X135452765Y-92224573D01*
X135681142Y-92270000D01*
X135452765Y-92315427D01*
X135022753Y-92602753D01*
X134735427Y-93032765D01*
X134634532Y-93540000D01*
X134735427Y-94047235D01*
X135022753Y-94477247D01*
X135452765Y-94764573D01*
X135831963Y-94840000D01*
X136088037Y-94840000D01*
X136467235Y-94764573D01*
X136897247Y-94477247D01*
X137184573Y-94047235D01*
X137213296Y-93902834D01*
X137393318Y-94313150D01*
X137773431Y-94677806D01*
X138264157Y-94869242D01*
X138475000Y-94764771D01*
X138475000Y-93565000D01*
X138525000Y-93565000D01*
X138525000Y-94764771D01*
X138735843Y-94869242D01*
X139226569Y-94677806D01*
X139606682Y-94313150D01*
X139818313Y-93830789D01*
X139829239Y-93775842D01*
X139724745Y-93565000D01*
X138525000Y-93565000D01*
X138475000Y-93565000D01*
X138455000Y-93565000D01*
X138455000Y-93515000D01*
X138475000Y-93515000D01*
X138475000Y-93495000D01*
X138525000Y-93495000D01*
X138525000Y-93515000D01*
X139724745Y-93515000D01*
X139829239Y-93304158D01*
X139818313Y-93249211D01*
X139606682Y-92766850D01*
X139226569Y-92402194D01*
X138987204Y-92308816D01*
X139350000Y-92308816D01*
X139525581Y-92273891D01*
X139674432Y-92174432D01*
X139773891Y-92025581D01*
X139792430Y-91932378D01*
X142366279Y-94506229D01*
X142405329Y-94564671D01*
X142463771Y-94603721D01*
X142463773Y-94603723D01*
X142636873Y-94719385D01*
X142683040Y-94728568D01*
X142841060Y-94760000D01*
X142841063Y-94760000D01*
X142910000Y-94773712D01*
X142978936Y-94760000D01*
X159432857Y-94760000D01*
X159432857Y-97475000D01*
X154948294Y-97475000D01*
X154897488Y-97485106D01*
X154514895Y-97561208D01*
X154325643Y-97639598D01*
X154325640Y-97639601D01*
X154001219Y-97856371D01*
X153856371Y-98001218D01*
X153856371Y-98001219D01*
X153639598Y-98325643D01*
X153561207Y-98514895D01*
X153561207Y-98514900D01*
X153485088Y-98897578D01*
X153485088Y-98906913D01*
X153477973Y-98944212D01*
X153476765Y-98956983D01*
X153399735Y-99893922D01*
X153181227Y-100763838D01*
X152823574Y-101586381D01*
X152336383Y-102339463D01*
X151732734Y-103002864D01*
X151028839Y-103558767D01*
X150243601Y-103992242D01*
X149398112Y-104291646D01*
X148506006Y-104450554D01*
X148009186Y-104473984D01*
X147106078Y-104399735D01*
X146236162Y-104181227D01*
X145413619Y-103823574D01*
X144660537Y-103336383D01*
X143997136Y-102732734D01*
X143441233Y-102028839D01*
X143007758Y-101243601D01*
X142708354Y-100398112D01*
X142549446Y-99506006D01*
X142524417Y-98975269D01*
X142514912Y-98902085D01*
X142514912Y-98897578D01*
X142438792Y-98514895D01*
X142360402Y-98325643D01*
X142360399Y-98325640D01*
X142325875Y-98273970D01*
X144350000Y-98273970D01*
X144350000Y-99726030D01*
X144905679Y-101067559D01*
X145932441Y-102094321D01*
X147273970Y-102650000D01*
X148726030Y-102650000D01*
X150067559Y-102094321D01*
X151094321Y-101067559D01*
X151650000Y-99726030D01*
X151650000Y-98273970D01*
X151094321Y-96932441D01*
X150067559Y-95905679D01*
X148726030Y-95350000D01*
X147273970Y-95350000D01*
X145932441Y-95905679D01*
X144905679Y-96932441D01*
X144350000Y-98273970D01*
X142325875Y-98273970D01*
X142143629Y-98001219D01*
X141998782Y-97856371D01*
X141998779Y-97856370D01*
X141674357Y-97639598D01*
X141485105Y-97561207D01*
X141485100Y-97561207D01*
X141102513Y-97485106D01*
X141051706Y-97475000D01*
X135051706Y-97475000D01*
X134822163Y-97429341D01*
X134671396Y-97328602D01*
X134570659Y-97177838D01*
X134525000Y-96948294D01*
X134525000Y-88935660D01*
X134642437Y-89053096D01*
X134642437Y-89053096D01*
G37*
X134642437Y-89053096D02*
X134684280Y-89115720D01*
X134932365Y-89281484D01*
X135151134Y-89325000D01*
X135224999Y-89339693D01*
X135298864Y-89325000D01*
X137214340Y-89325000D01*
X137592051Y-89702711D01*
X137474419Y-89726109D01*
X137325568Y-89825568D01*
X137226109Y-89974419D01*
X137191184Y-90150000D01*
X137191184Y-90526001D01*
X137184573Y-90492765D01*
X136897247Y-90062753D01*
X136467235Y-89775427D01*
X136088037Y-89700000D01*
X135831963Y-89700000D01*
X135452765Y-89775427D01*
X135022753Y-90062753D01*
X134735427Y-90492765D01*
X134634532Y-91000000D01*
X134735427Y-91507235D01*
X135022753Y-91937247D01*
X135452765Y-92224573D01*
X135681142Y-92270000D01*
X135452765Y-92315427D01*
X135022753Y-92602753D01*
X134735427Y-93032765D01*
X134634532Y-93540000D01*
X134735427Y-94047235D01*
X135022753Y-94477247D01*
X135452765Y-94764573D01*
X135831963Y-94840000D01*
X136088037Y-94840000D01*
X136467235Y-94764573D01*
X136897247Y-94477247D01*
X137184573Y-94047235D01*
X137213296Y-93902834D01*
X137393318Y-94313150D01*
X137773431Y-94677806D01*
X138264157Y-94869242D01*
X138475000Y-94764771D01*
X138475000Y-93565000D01*
X138525000Y-93565000D01*
X138525000Y-94764771D01*
X138735843Y-94869242D01*
X139226569Y-94677806D01*
X139606682Y-94313150D01*
X139818313Y-93830789D01*
X139829239Y-93775842D01*
X139724745Y-93565000D01*
X138525000Y-93565000D01*
X138475000Y-93565000D01*
X138455000Y-93565000D01*
X138455000Y-93515000D01*
X138475000Y-93515000D01*
X138475000Y-93495000D01*
X138525000Y-93495000D01*
X138525000Y-93515000D01*
X139724745Y-93515000D01*
X139829239Y-93304158D01*
X139818313Y-93249211D01*
X139606682Y-92766850D01*
X139226569Y-92402194D01*
X138987204Y-92308816D01*
X139350000Y-92308816D01*
X139525581Y-92273891D01*
X139674432Y-92174432D01*
X139773891Y-92025581D01*
X139792430Y-91932378D01*
X142366279Y-94506229D01*
X142405329Y-94564671D01*
X142463771Y-94603721D01*
X142463773Y-94603723D01*
X142636873Y-94719385D01*
X142683040Y-94728568D01*
X142841060Y-94760000D01*
X142841063Y-94760000D01*
X142910000Y-94773712D01*
X142978936Y-94760000D01*
X159432857Y-94760000D01*
X159432857Y-97475000D01*
X154948294Y-97475000D01*
X154897488Y-97485106D01*
X154514895Y-97561208D01*
X154325643Y-97639598D01*
X154325640Y-97639601D01*
X154001219Y-97856371D01*
X153856371Y-98001218D01*
X153856371Y-98001219D01*
X153639598Y-98325643D01*
X153561207Y-98514895D01*
X153561207Y-98514900D01*
X153485088Y-98897578D01*
X153485088Y-98906913D01*
X153477973Y-98944212D01*
X153476765Y-98956983D01*
X153399735Y-99893922D01*
X153181227Y-100763838D01*
X152823574Y-101586381D01*
X152336383Y-102339463D01*
X151732734Y-103002864D01*
X151028839Y-103558767D01*
X150243601Y-103992242D01*
X149398112Y-104291646D01*
X148506006Y-104450554D01*
X148009186Y-104473984D01*
X147106078Y-104399735D01*
X146236162Y-104181227D01*
X145413619Y-103823574D01*
X144660537Y-103336383D01*
X143997136Y-102732734D01*
X143441233Y-102028839D01*
X143007758Y-101243601D01*
X142708354Y-100398112D01*
X142549446Y-99506006D01*
X142524417Y-98975269D01*
X142514912Y-98902085D01*
X142514912Y-98897578D01*
X142438792Y-98514895D01*
X142360402Y-98325643D01*
X142360399Y-98325640D01*
X142325875Y-98273970D01*
X144350000Y-98273970D01*
X144350000Y-99726030D01*
X144905679Y-101067559D01*
X145932441Y-102094321D01*
X147273970Y-102650000D01*
X148726030Y-102650000D01*
X150067559Y-102094321D01*
X151094321Y-101067559D01*
X151650000Y-99726030D01*
X151650000Y-98273970D01*
X151094321Y-96932441D01*
X150067559Y-95905679D01*
X148726030Y-95350000D01*
X147273970Y-95350000D01*
X145932441Y-95905679D01*
X144905679Y-96932441D01*
X144350000Y-98273970D01*
X142325875Y-98273970D01*
X142143629Y-98001219D01*
X141998782Y-97856371D01*
X141998779Y-97856370D01*
X141674357Y-97639598D01*
X141485105Y-97561207D01*
X141485100Y-97561207D01*
X141102513Y-97485106D01*
X141051706Y-97475000D01*
X135051706Y-97475000D01*
X134822163Y-97429341D01*
X134671396Y-97328602D01*
X134570659Y-97177838D01*
X134525000Y-96948294D01*
X134525000Y-88935660D01*
X134642437Y-89053096D01*
G36*
X156875001Y-87746146D02*
X156856109Y-87774419D01*
X156821184Y-87950000D01*
X156821184Y-88550000D01*
X156856109Y-88725581D01*
X156955568Y-88874432D01*
X157104419Y-88973891D01*
X157280000Y-89008816D01*
X157671184Y-89008816D01*
X157671184Y-89590000D01*
X157706109Y-89765581D01*
X157755834Y-89840000D01*
X157706109Y-89914419D01*
X157671184Y-90090000D01*
X157671184Y-90690000D01*
X157706109Y-90865581D01*
X157740210Y-90916617D01*
X155896818Y-92760010D01*
X152580000Y-92760010D01*
X152580000Y-92600816D01*
X152465819Y-92325159D01*
X152254841Y-92114181D01*
X151979184Y-92000000D01*
X151680816Y-92000000D01*
X151405159Y-92114181D01*
X151209340Y-92310000D01*
X149648528Y-92310000D01*
X149618528Y-92280000D01*
X149830000Y-92280000D01*
X149955000Y-92155000D01*
X149955000Y-91555000D01*
X150005000Y-91555000D01*
X150005000Y-92155000D01*
X150130000Y-92280000D01*
X150379456Y-92280000D01*
X150563227Y-92203880D01*
X150703879Y-92063227D01*
X150780000Y-91879456D01*
X150780000Y-91680000D01*
X150655000Y-91555000D01*
X150005000Y-91555000D01*
X149955000Y-91555000D01*
X149935000Y-91555000D01*
X149935000Y-91505000D01*
X149955000Y-91505000D01*
X149955000Y-90905000D01*
X150005000Y-90905000D01*
X150005000Y-91505000D01*
X150655000Y-91505000D01*
X150780000Y-91380000D01*
X150780000Y-91180544D01*
X150703879Y-90996773D01*
X150563227Y-90856120D01*
X150379456Y-90780000D01*
X150130000Y-90780000D01*
X150005000Y-90905000D01*
X149955000Y-90905000D01*
X149830000Y-90780000D01*
X149588816Y-90780000D01*
X149588816Y-90430177D01*
X149660816Y-90460000D01*
X149959184Y-90460000D01*
X150234841Y-90345819D01*
X150445819Y-90134841D01*
X150560000Y-89859184D01*
X150560000Y-89680000D01*
X150599184Y-89680000D01*
X150874841Y-89565819D01*
X151085819Y-89354841D01*
X151191184Y-89100468D01*
X151191184Y-89250000D01*
X151226109Y-89425581D01*
X151325568Y-89574432D01*
X151474419Y-89673891D01*
X151650000Y-89708816D01*
X152350000Y-89708816D01*
X152525581Y-89673891D01*
X152674432Y-89574432D01*
X152707461Y-89525000D01*
X153043377Y-89525000D01*
X153100000Y-89536263D01*
X153156623Y-89525000D01*
X153156628Y-89525000D01*
X153324354Y-89491637D01*
X153514551Y-89364551D01*
X153546629Y-89316543D01*
X153554356Y-89308816D01*
X153700000Y-89308816D01*
X153875581Y-89273891D01*
X154024432Y-89174432D01*
X154123891Y-89025581D01*
X154158816Y-88850000D01*
X154158816Y-88450000D01*
X154123891Y-88274419D01*
X154107387Y-88249720D01*
X154123880Y-88233227D01*
X154200000Y-88049456D01*
X154200000Y-87900000D01*
X154075000Y-87775000D01*
X153425000Y-87775000D01*
X153425000Y-87795000D01*
X153375000Y-87795000D01*
X153375000Y-87775000D01*
X153355000Y-87775000D01*
X153355000Y-87725000D01*
X153375000Y-87725000D01*
X153375000Y-87705000D01*
X153425000Y-87705000D01*
X153425000Y-87725000D01*
X154075000Y-87725000D01*
X154200000Y-87600000D01*
X154200000Y-87550000D01*
X156875000Y-87550000D01*
X156875001Y-87746146D01*
X156875001Y-87746146D01*
G37*
X156875001Y-87746146D02*
X156856109Y-87774419D01*
X156821184Y-87950000D01*
X156821184Y-88550000D01*
X156856109Y-88725581D01*
X156955568Y-88874432D01*
X157104419Y-88973891D01*
X157280000Y-89008816D01*
X157671184Y-89008816D01*
X157671184Y-89590000D01*
X157706109Y-89765581D01*
X157755834Y-89840000D01*
X157706109Y-89914419D01*
X157671184Y-90090000D01*
X157671184Y-90690000D01*
X157706109Y-90865581D01*
X157740210Y-90916617D01*
X155896818Y-92760010D01*
X152580000Y-92760010D01*
X152580000Y-92600816D01*
X152465819Y-92325159D01*
X152254841Y-92114181D01*
X151979184Y-92000000D01*
X151680816Y-92000000D01*
X151405159Y-92114181D01*
X151209340Y-92310000D01*
X149648528Y-92310000D01*
X149618528Y-92280000D01*
X149830000Y-92280000D01*
X149955000Y-92155000D01*
X149955000Y-91555000D01*
X150005000Y-91555000D01*
X150005000Y-92155000D01*
X150130000Y-92280000D01*
X150379456Y-92280000D01*
X150563227Y-92203880D01*
X150703879Y-92063227D01*
X150780000Y-91879456D01*
X150780000Y-91680000D01*
X150655000Y-91555000D01*
X150005000Y-91555000D01*
X149955000Y-91555000D01*
X149935000Y-91555000D01*
X149935000Y-91505000D01*
X149955000Y-91505000D01*
X149955000Y-90905000D01*
X150005000Y-90905000D01*
X150005000Y-91505000D01*
X150655000Y-91505000D01*
X150780000Y-91380000D01*
X150780000Y-91180544D01*
X150703879Y-90996773D01*
X150563227Y-90856120D01*
X150379456Y-90780000D01*
X150130000Y-90780000D01*
X150005000Y-90905000D01*
X149955000Y-90905000D01*
X149830000Y-90780000D01*
X149588816Y-90780000D01*
X149588816Y-90430177D01*
X149660816Y-90460000D01*
X149959184Y-90460000D01*
X150234841Y-90345819D01*
X150445819Y-90134841D01*
X150560000Y-89859184D01*
X150560000Y-89680000D01*
X150599184Y-89680000D01*
X150874841Y-89565819D01*
X151085819Y-89354841D01*
X151191184Y-89100468D01*
X151191184Y-89250000D01*
X151226109Y-89425581D01*
X151325568Y-89574432D01*
X151474419Y-89673891D01*
X151650000Y-89708816D01*
X152350000Y-89708816D01*
X152525581Y-89673891D01*
X152674432Y-89574432D01*
X152707461Y-89525000D01*
X153043377Y-89525000D01*
X153100000Y-89536263D01*
X153156623Y-89525000D01*
X153156628Y-89525000D01*
X153324354Y-89491637D01*
X153514551Y-89364551D01*
X153546629Y-89316543D01*
X153554356Y-89308816D01*
X153700000Y-89308816D01*
X153875581Y-89273891D01*
X154024432Y-89174432D01*
X154123891Y-89025581D01*
X154158816Y-88850000D01*
X154158816Y-88450000D01*
X154123891Y-88274419D01*
X154107387Y-88249720D01*
X154123880Y-88233227D01*
X154200000Y-88049456D01*
X154200000Y-87900000D01*
X154075000Y-87775000D01*
X153425000Y-87775000D01*
X153425000Y-87795000D01*
X153375000Y-87795000D01*
X153375000Y-87775000D01*
X153355000Y-87775000D01*
X153355000Y-87725000D01*
X153375000Y-87725000D01*
X153375000Y-87705000D01*
X153425000Y-87705000D01*
X153425000Y-87725000D01*
X154075000Y-87725000D01*
X154200000Y-87600000D01*
X154200000Y-87550000D01*
X156875000Y-87550000D01*
X156875001Y-87746146D01*
G36*
X143925001Y-84918174D02*
X143925000Y-87259130D01*
X143825568Y-87325568D01*
X143808387Y-87351281D01*
X143683227Y-87226121D01*
X143499456Y-87150000D01*
X143250000Y-87150000D01*
X143125000Y-87275000D01*
X143125000Y-87825000D01*
X143145000Y-87825000D01*
X143145000Y-87875000D01*
X143125000Y-87875000D01*
X143125000Y-87895000D01*
X143075000Y-87895000D01*
X143075000Y-87875000D01*
X142425000Y-87875000D01*
X142300000Y-88000000D01*
X142300000Y-88149456D01*
X142376120Y-88333227D01*
X142392613Y-88349720D01*
X142376109Y-88374419D01*
X142341184Y-88550000D01*
X142341184Y-88950000D01*
X142376109Y-89125581D01*
X142475568Y-89274432D01*
X142624419Y-89373891D01*
X142800000Y-89408816D01*
X142945644Y-89408816D01*
X142953371Y-89416543D01*
X142985449Y-89464551D01*
X143175646Y-89591637D01*
X143343372Y-89625000D01*
X143343375Y-89625000D01*
X143399999Y-89636263D01*
X143456623Y-89625000D01*
X143792539Y-89625000D01*
X143825568Y-89674432D01*
X143974419Y-89773891D01*
X144150000Y-89808816D01*
X144850000Y-89808816D01*
X144867115Y-89805412D01*
X144858246Y-89849999D01*
X144904813Y-90084107D01*
X144984007Y-90202628D01*
X145037425Y-90282574D01*
X145087518Y-90316045D01*
X145618566Y-90847093D01*
X145596773Y-90856120D01*
X145456121Y-90996773D01*
X145380000Y-91180544D01*
X145380000Y-91380000D01*
X145505000Y-91505000D01*
X146155000Y-91505000D01*
X146155000Y-91485000D01*
X146205000Y-91485000D01*
X146205000Y-91505000D01*
X146225000Y-91505000D01*
X146225000Y-91555000D01*
X146205000Y-91555000D01*
X146205000Y-92155000D01*
X146330000Y-92280000D01*
X146579456Y-92280000D01*
X146680001Y-92238353D01*
X146680001Y-92460909D01*
X146668247Y-92520000D01*
X146714814Y-92754108D01*
X146718758Y-92760010D01*
X144193183Y-92760010D01*
X143113173Y-91680000D01*
X145380000Y-91680000D01*
X145380000Y-91879456D01*
X145456121Y-92063227D01*
X145596773Y-92203880D01*
X145780544Y-92280000D01*
X146030000Y-92280000D01*
X146155000Y-92155000D01*
X146155000Y-91555000D01*
X145505000Y-91555000D01*
X145380000Y-91680000D01*
X143113173Y-91680000D01*
X139145415Y-87712243D01*
X139387414Y-87550544D01*
X142300000Y-87550544D01*
X142300000Y-87700000D01*
X142425000Y-87825000D01*
X143075000Y-87825000D01*
X143075000Y-87275000D01*
X142950000Y-87150000D01*
X142700544Y-87150000D01*
X142516773Y-87226121D01*
X142376120Y-87366773D01*
X142300000Y-87550544D01*
X139387414Y-87550544D01*
X139437247Y-87517247D01*
X139724573Y-87087235D01*
X139825468Y-86580000D01*
X139724573Y-86072765D01*
X139437247Y-85642753D01*
X139007235Y-85355427D01*
X138778858Y-85310000D01*
X139007235Y-85264573D01*
X139437247Y-84977247D01*
X139724573Y-84547235D01*
X139825468Y-84040000D01*
X139740473Y-83612699D01*
X141180000Y-82173172D01*
X143925001Y-84918174D01*
X143925001Y-84918174D01*
G37*
X143925001Y-84918174D02*
X143925000Y-87259130D01*
X143825568Y-87325568D01*
X143808387Y-87351281D01*
X143683227Y-87226121D01*
X143499456Y-87150000D01*
X143250000Y-87150000D01*
X143125000Y-87275000D01*
X143125000Y-87825000D01*
X143145000Y-87825000D01*
X143145000Y-87875000D01*
X143125000Y-87875000D01*
X143125000Y-87895000D01*
X143075000Y-87895000D01*
X143075000Y-87875000D01*
X142425000Y-87875000D01*
X142300000Y-88000000D01*
X142300000Y-88149456D01*
X142376120Y-88333227D01*
X142392613Y-88349720D01*
X142376109Y-88374419D01*
X142341184Y-88550000D01*
X142341184Y-88950000D01*
X142376109Y-89125581D01*
X142475568Y-89274432D01*
X142624419Y-89373891D01*
X142800000Y-89408816D01*
X142945644Y-89408816D01*
X142953371Y-89416543D01*
X142985449Y-89464551D01*
X143175646Y-89591637D01*
X143343372Y-89625000D01*
X143343375Y-89625000D01*
X143399999Y-89636263D01*
X143456623Y-89625000D01*
X143792539Y-89625000D01*
X143825568Y-89674432D01*
X143974419Y-89773891D01*
X144150000Y-89808816D01*
X144850000Y-89808816D01*
X144867115Y-89805412D01*
X144858246Y-89849999D01*
X144904813Y-90084107D01*
X144984007Y-90202628D01*
X145037425Y-90282574D01*
X145087518Y-90316045D01*
X145618566Y-90847093D01*
X145596773Y-90856120D01*
X145456121Y-90996773D01*
X145380000Y-91180544D01*
X145380000Y-91380000D01*
X145505000Y-91505000D01*
X146155000Y-91505000D01*
X146155000Y-91485000D01*
X146205000Y-91485000D01*
X146205000Y-91505000D01*
X146225000Y-91505000D01*
X146225000Y-91555000D01*
X146205000Y-91555000D01*
X146205000Y-92155000D01*
X146330000Y-92280000D01*
X146579456Y-92280000D01*
X146680001Y-92238353D01*
X146680001Y-92460909D01*
X146668247Y-92520000D01*
X146714814Y-92754108D01*
X146718758Y-92760010D01*
X144193183Y-92760010D01*
X143113173Y-91680000D01*
X145380000Y-91680000D01*
X145380000Y-91879456D01*
X145456121Y-92063227D01*
X145596773Y-92203880D01*
X145780544Y-92280000D01*
X146030000Y-92280000D01*
X146155000Y-92155000D01*
X146155000Y-91555000D01*
X145505000Y-91555000D01*
X145380000Y-91680000D01*
X143113173Y-91680000D01*
X139145415Y-87712243D01*
X139387414Y-87550544D01*
X142300000Y-87550544D01*
X142300000Y-87700000D01*
X142425000Y-87825000D01*
X143075000Y-87825000D01*
X143075000Y-87275000D01*
X142950000Y-87150000D01*
X142700544Y-87150000D01*
X142516773Y-87226121D01*
X142376120Y-87366773D01*
X142300000Y-87550544D01*
X139387414Y-87550544D01*
X139437247Y-87517247D01*
X139724573Y-87087235D01*
X139825468Y-86580000D01*
X139724573Y-86072765D01*
X139437247Y-85642753D01*
X139007235Y-85355427D01*
X138778858Y-85310000D01*
X139007235Y-85264573D01*
X139437247Y-84977247D01*
X139724573Y-84547235D01*
X139825468Y-84040000D01*
X139740473Y-83612699D01*
X141180000Y-82173172D01*
X143925001Y-84918174D01*
G36*
X148121184Y-86230000D02*
X148121184Y-86630000D01*
X148135256Y-86700744D01*
X148105000Y-86731000D01*
X148105000Y-87331000D01*
X148125000Y-87331000D01*
X148125000Y-87381000D01*
X148105000Y-87381000D01*
X148105000Y-87981000D01*
X148171184Y-88047184D01*
X148171184Y-88406000D01*
X148201021Y-88556000D01*
X148171184Y-88706000D01*
X148171184Y-89206000D01*
X148201021Y-89356000D01*
X148171184Y-89506000D01*
X148171184Y-89864816D01*
X148105000Y-89931000D01*
X148105000Y-90531000D01*
X148125000Y-90531000D01*
X148125000Y-90581000D01*
X148105000Y-90581000D01*
X148105000Y-91181000D01*
X148134924Y-91210924D01*
X148121184Y-91280000D01*
X148121184Y-91780000D01*
X148156109Y-91955581D01*
X148255568Y-92104432D01*
X148280000Y-92120757D01*
X148280000Y-92310000D01*
X147918528Y-92310000D01*
X147880000Y-92271473D01*
X147880000Y-92120757D01*
X147904432Y-92104432D01*
X148003891Y-91955581D01*
X148038816Y-91780000D01*
X148038816Y-91280000D01*
X148025076Y-91210924D01*
X148055000Y-91181000D01*
X148055000Y-90581000D01*
X148035000Y-90581000D01*
X148035000Y-90531000D01*
X148055000Y-90531000D01*
X148055000Y-89931000D01*
X147905000Y-89781000D01*
X147305000Y-89781000D01*
X147305000Y-89801000D01*
X147255000Y-89801000D01*
X147255000Y-89781000D01*
X146655000Y-89781000D01*
X146530000Y-89906000D01*
X146530000Y-89956000D01*
X146424528Y-89956000D01*
X146069999Y-89601472D01*
X146069999Y-89106000D01*
X146530000Y-89106000D01*
X146530000Y-89305456D01*
X146550936Y-89356000D01*
X146530000Y-89406544D01*
X146530000Y-89606000D01*
X146655000Y-89731000D01*
X147255000Y-89731000D01*
X147255000Y-88981000D01*
X147305000Y-88981000D01*
X147305000Y-89731000D01*
X147905000Y-89731000D01*
X148030000Y-89606000D01*
X148030000Y-89406544D01*
X148009064Y-89356000D01*
X148030000Y-89305456D01*
X148030000Y-89106000D01*
X147905000Y-88981000D01*
X147305000Y-88981000D01*
X147255000Y-88981000D01*
X146655000Y-88981000D01*
X146530000Y-89106000D01*
X146069999Y-89106000D01*
X146069999Y-88306000D01*
X146530000Y-88306000D01*
X146530000Y-88505456D01*
X146550936Y-88556000D01*
X146530000Y-88606544D01*
X146530000Y-88806000D01*
X146655000Y-88931000D01*
X147255000Y-88931000D01*
X147255000Y-88181000D01*
X147305000Y-88181000D01*
X147305000Y-88931000D01*
X147905000Y-88931000D01*
X148030000Y-88806000D01*
X148030000Y-88606544D01*
X148009064Y-88556000D01*
X148030000Y-88505456D01*
X148030000Y-88306000D01*
X147905000Y-88181000D01*
X147305000Y-88181000D01*
X147255000Y-88181000D01*
X146655000Y-88181000D01*
X146530000Y-88306000D01*
X146069999Y-88306000D01*
X146069999Y-87078816D01*
X146570000Y-87078816D01*
X146576863Y-87077451D01*
X146571184Y-87106000D01*
X146571184Y-87606000D01*
X146584772Y-87674313D01*
X146530000Y-87806544D01*
X146530000Y-88006000D01*
X146655000Y-88131000D01*
X147255000Y-88131000D01*
X147255000Y-88111000D01*
X147305000Y-88111000D01*
X147305000Y-88131000D01*
X147905000Y-88131000D01*
X148055000Y-87981000D01*
X148055000Y-87381000D01*
X148035000Y-87381000D01*
X148035000Y-87331000D01*
X148055000Y-87331000D01*
X148055000Y-86731000D01*
X148021426Y-86697426D01*
X148038816Y-86610000D01*
X148038816Y-86210000D01*
X148022903Y-86130000D01*
X148141075Y-86130000D01*
X148121184Y-86230000D01*
X148121184Y-86230000D01*
G37*
X148121184Y-86230000D02*
X148121184Y-86630000D01*
X148135256Y-86700744D01*
X148105000Y-86731000D01*
X148105000Y-87331000D01*
X148125000Y-87331000D01*
X148125000Y-87381000D01*
X148105000Y-87381000D01*
X148105000Y-87981000D01*
X148171184Y-88047184D01*
X148171184Y-88406000D01*
X148201021Y-88556000D01*
X148171184Y-88706000D01*
X148171184Y-89206000D01*
X148201021Y-89356000D01*
X148171184Y-89506000D01*
X148171184Y-89864816D01*
X148105000Y-89931000D01*
X148105000Y-90531000D01*
X148125000Y-90531000D01*
X148125000Y-90581000D01*
X148105000Y-90581000D01*
X148105000Y-91181000D01*
X148134924Y-91210924D01*
X148121184Y-91280000D01*
X148121184Y-91780000D01*
X148156109Y-91955581D01*
X148255568Y-92104432D01*
X148280000Y-92120757D01*
X148280000Y-92310000D01*
X147918528Y-92310000D01*
X147880000Y-92271473D01*
X147880000Y-92120757D01*
X147904432Y-92104432D01*
X148003891Y-91955581D01*
X148038816Y-91780000D01*
X148038816Y-91280000D01*
X148025076Y-91210924D01*
X148055000Y-91181000D01*
X148055000Y-90581000D01*
X148035000Y-90581000D01*
X148035000Y-90531000D01*
X148055000Y-90531000D01*
X148055000Y-89931000D01*
X147905000Y-89781000D01*
X147305000Y-89781000D01*
X147305000Y-89801000D01*
X147255000Y-89801000D01*
X147255000Y-89781000D01*
X146655000Y-89781000D01*
X146530000Y-89906000D01*
X146530000Y-89956000D01*
X146424528Y-89956000D01*
X146069999Y-89601472D01*
X146069999Y-89106000D01*
X146530000Y-89106000D01*
X146530000Y-89305456D01*
X146550936Y-89356000D01*
X146530000Y-89406544D01*
X146530000Y-89606000D01*
X146655000Y-89731000D01*
X147255000Y-89731000D01*
X147255000Y-88981000D01*
X147305000Y-88981000D01*
X147305000Y-89731000D01*
X147905000Y-89731000D01*
X148030000Y-89606000D01*
X148030000Y-89406544D01*
X148009064Y-89356000D01*
X148030000Y-89305456D01*
X148030000Y-89106000D01*
X147905000Y-88981000D01*
X147305000Y-88981000D01*
X147255000Y-88981000D01*
X146655000Y-88981000D01*
X146530000Y-89106000D01*
X146069999Y-89106000D01*
X146069999Y-88306000D01*
X146530000Y-88306000D01*
X146530000Y-88505456D01*
X146550936Y-88556000D01*
X146530000Y-88606544D01*
X146530000Y-88806000D01*
X146655000Y-88931000D01*
X147255000Y-88931000D01*
X147255000Y-88181000D01*
X147305000Y-88181000D01*
X147305000Y-88931000D01*
X147905000Y-88931000D01*
X148030000Y-88806000D01*
X148030000Y-88606544D01*
X148009064Y-88556000D01*
X148030000Y-88505456D01*
X148030000Y-88306000D01*
X147905000Y-88181000D01*
X147305000Y-88181000D01*
X147255000Y-88181000D01*
X146655000Y-88181000D01*
X146530000Y-88306000D01*
X146069999Y-88306000D01*
X146069999Y-87078816D01*
X146570000Y-87078816D01*
X146576863Y-87077451D01*
X146571184Y-87106000D01*
X146571184Y-87606000D01*
X146584772Y-87674313D01*
X146530000Y-87806544D01*
X146530000Y-88006000D01*
X146655000Y-88131000D01*
X147255000Y-88131000D01*
X147255000Y-88111000D01*
X147305000Y-88111000D01*
X147305000Y-88131000D01*
X147905000Y-88131000D01*
X148055000Y-87981000D01*
X148055000Y-87381000D01*
X148035000Y-87381000D01*
X148035000Y-87331000D01*
X148055000Y-87331000D01*
X148055000Y-86731000D01*
X148021426Y-86697426D01*
X148038816Y-86610000D01*
X148038816Y-86210000D01*
X148022903Y-86130000D01*
X148141075Y-86130000D01*
X148121184Y-86230000D01*
G36*
X148893922Y-64600265D02*
X149763832Y-64818771D01*
X150586381Y-65176426D01*
X151339463Y-65663617D01*
X152002864Y-66267266D01*
X152558767Y-66971161D01*
X152992242Y-67756398D01*
X153291645Y-68601887D01*
X153450554Y-69493994D01*
X153475583Y-70024731D01*
X153485088Y-70097915D01*
X153485088Y-70102422D01*
X153561207Y-70485100D01*
X153561207Y-70485105D01*
X153639598Y-70674357D01*
X153856370Y-70998779D01*
X153856371Y-70998782D01*
X154001219Y-71143629D01*
X154325640Y-71360399D01*
X154325643Y-71360402D01*
X154514895Y-71438792D01*
X154795155Y-71494539D01*
X154948294Y-71525000D01*
X161948294Y-71525000D01*
X162177838Y-71570659D01*
X162328602Y-71671396D01*
X162429341Y-71822163D01*
X162475000Y-72051706D01*
X162475000Y-82865052D01*
X162269802Y-82659853D01*
X162325468Y-82380000D01*
X162224573Y-81872765D01*
X161937247Y-81442753D01*
X161507235Y-81155427D01*
X161350946Y-81124339D01*
X161726569Y-80977806D01*
X162106682Y-80613150D01*
X162318313Y-80130789D01*
X162329239Y-80075842D01*
X162224745Y-79865000D01*
X161025000Y-79865000D01*
X161025000Y-79885000D01*
X160975000Y-79885000D01*
X160975000Y-79865000D01*
X159775255Y-79865000D01*
X159670761Y-80075842D01*
X159681687Y-80130789D01*
X159893318Y-80613150D01*
X160273431Y-80977806D01*
X160649054Y-81124339D01*
X160492765Y-81155427D01*
X160062753Y-81442753D01*
X159775427Y-81872765D01*
X159674532Y-82380000D01*
X159775427Y-82887235D01*
X160062753Y-83317247D01*
X160492765Y-83604573D01*
X160721142Y-83650000D01*
X160492765Y-83695427D01*
X160062753Y-83982753D01*
X159775427Y-84412765D01*
X159674532Y-84920000D01*
X159775427Y-85427235D01*
X160062753Y-85857247D01*
X160492765Y-86144573D01*
X160721142Y-86190000D01*
X160492765Y-86235427D01*
X160062753Y-86522753D01*
X159845869Y-86847341D01*
X158216049Y-85217522D01*
X158182575Y-85167425D01*
X157984108Y-85034813D01*
X157809091Y-85000000D01*
X157809086Y-85000000D01*
X157750000Y-84988247D01*
X157690914Y-85000000D01*
X154100000Y-85000000D01*
X154100000Y-84938172D01*
X156666546Y-82371627D01*
X156714551Y-82339551D01*
X156767406Y-82260449D01*
X156841592Y-82149421D01*
X156841637Y-82149354D01*
X156875000Y-81981628D01*
X156875000Y-81981624D01*
X156886263Y-81925001D01*
X156875000Y-81868377D01*
X156875000Y-77616624D01*
X156886263Y-77560000D01*
X156881458Y-77535842D01*
X159670761Y-77535842D01*
X159681687Y-77590789D01*
X159893318Y-78073150D01*
X160273431Y-78437806D01*
X160612296Y-78570000D01*
X160273431Y-78702194D01*
X159893318Y-79066850D01*
X159681687Y-79549211D01*
X159670761Y-79604158D01*
X159775255Y-79815000D01*
X160975000Y-79815000D01*
X160975000Y-78615229D01*
X160883719Y-78570000D01*
X160975000Y-78524771D01*
X160975000Y-77325000D01*
X161025000Y-77325000D01*
X161025000Y-78524771D01*
X161116281Y-78570000D01*
X161025000Y-78615229D01*
X161025000Y-79815000D01*
X162224745Y-79815000D01*
X162329239Y-79604158D01*
X162318313Y-79549211D01*
X162106682Y-79066850D01*
X161726569Y-78702194D01*
X161387704Y-78570000D01*
X161726569Y-78437806D01*
X162106682Y-78073150D01*
X162318313Y-77590789D01*
X162329239Y-77535842D01*
X162224745Y-77325000D01*
X161025000Y-77325000D01*
X160975000Y-77325000D01*
X159775255Y-77325000D01*
X159670761Y-77535842D01*
X156881458Y-77535842D01*
X156875000Y-77503376D01*
X156875000Y-77503372D01*
X156841637Y-77335646D01*
X156714551Y-77145449D01*
X156666546Y-77113373D01*
X156617331Y-77064158D01*
X159670761Y-77064158D01*
X159775255Y-77275000D01*
X160975000Y-77275000D01*
X160975000Y-76075229D01*
X161025000Y-76075229D01*
X161025000Y-77275000D01*
X162224745Y-77275000D01*
X162329239Y-77064158D01*
X162318313Y-77009211D01*
X162106682Y-76526850D01*
X161726569Y-76162194D01*
X161235843Y-75970758D01*
X161025000Y-76075229D01*
X160975000Y-76075229D01*
X160764157Y-75970758D01*
X160273431Y-76162194D01*
X159893318Y-76526850D01*
X159681687Y-77009211D01*
X159670761Y-77064158D01*
X156617331Y-77064158D01*
X156570000Y-77016827D01*
X156570000Y-76930816D01*
X156455819Y-76655159D01*
X156244841Y-76444181D01*
X155969184Y-76330000D01*
X155670816Y-76330000D01*
X155395159Y-76444181D01*
X155184181Y-76655159D01*
X155070000Y-76930816D01*
X155070000Y-77229184D01*
X155184181Y-77504841D01*
X155395159Y-77715819D01*
X155670816Y-77830000D01*
X155725000Y-77830000D01*
X155725001Y-81686826D01*
X153286828Y-84125000D01*
X153200816Y-84125000D01*
X152925159Y-84239181D01*
X152889340Y-84275000D01*
X152473528Y-84275000D01*
X151258816Y-83060289D01*
X151258816Y-81900000D01*
X151223891Y-81724419D01*
X151127393Y-81580000D01*
X151144340Y-81580000D01*
X151205159Y-81640819D01*
X151480816Y-81755000D01*
X151779184Y-81755000D01*
X152054841Y-81640819D01*
X152265819Y-81429841D01*
X152380000Y-81154184D01*
X152380000Y-80855816D01*
X152265819Y-80580159D01*
X152054841Y-80369181D01*
X151779184Y-80255000D01*
X151480816Y-80255000D01*
X151205159Y-80369181D01*
X151144340Y-80430000D01*
X150560268Y-80430000D01*
X151275268Y-79715000D01*
X153944340Y-79715000D01*
X154005159Y-79775819D01*
X154280816Y-79890000D01*
X154579184Y-79890000D01*
X154854841Y-79775819D01*
X155065819Y-79564841D01*
X155180000Y-79289184D01*
X155180000Y-78990816D01*
X155065819Y-78715159D01*
X154854841Y-78504181D01*
X154579184Y-78390000D01*
X154280816Y-78390000D01*
X154005159Y-78504181D01*
X153944340Y-78565000D01*
X151859569Y-78565000D01*
X153176628Y-77247940D01*
X153241954Y-77182614D01*
X153295159Y-77235819D01*
X153570816Y-77350000D01*
X153869184Y-77350000D01*
X154144841Y-77235819D01*
X154355819Y-77024841D01*
X154470000Y-76749184D01*
X154470000Y-76450816D01*
X154355819Y-76175159D01*
X154144841Y-75964181D01*
X153967957Y-75890913D01*
X155243871Y-74615000D01*
X157184340Y-74615000D01*
X157245159Y-74675819D01*
X157520816Y-74790000D01*
X157819184Y-74790000D01*
X158094841Y-74675819D01*
X158305819Y-74464841D01*
X158420000Y-74189184D01*
X158420000Y-73890816D01*
X158305819Y-73615159D01*
X158094841Y-73404181D01*
X157819184Y-73290000D01*
X157520816Y-73290000D01*
X157245159Y-73404181D01*
X157184340Y-73465000D01*
X156175660Y-73465000D01*
X156175819Y-73464841D01*
X156290000Y-73189184D01*
X156290000Y-72890816D01*
X156175819Y-72615159D01*
X155964841Y-72404181D01*
X155689184Y-72290000D01*
X155390816Y-72290000D01*
X155115159Y-72404181D01*
X154904181Y-72615159D01*
X154799892Y-72866935D01*
X151613744Y-76053084D01*
X151424841Y-75864181D01*
X151168750Y-75758105D01*
X151223891Y-75675581D01*
X151258816Y-75500000D01*
X151258816Y-73950000D01*
X151223891Y-73774419D01*
X151124432Y-73625568D01*
X150975581Y-73526109D01*
X150800000Y-73491184D01*
X149500000Y-73491184D01*
X149324419Y-73526109D01*
X149175568Y-73625568D01*
X149076109Y-73774419D01*
X149041184Y-73950000D01*
X149041184Y-75500000D01*
X149076109Y-75675581D01*
X149175568Y-75824432D01*
X149324419Y-75923891D01*
X149500000Y-75958816D01*
X149664800Y-75958816D01*
X149703372Y-76016544D01*
X149703374Y-76016546D01*
X149735450Y-76064551D01*
X149783455Y-76096627D01*
X150250000Y-76563173D01*
X150250000Y-76649184D01*
X150364181Y-76924841D01*
X150553084Y-77113744D01*
X148191818Y-79475010D01*
X140335650Y-79475010D01*
X141103099Y-78707561D01*
X141165720Y-78665720D01*
X141331484Y-78417635D01*
X141375000Y-78198866D01*
X141389693Y-78125001D01*
X141375000Y-78051136D01*
X141375000Y-75748864D01*
X141389693Y-75674999D01*
X141354883Y-75500000D01*
X141331484Y-75382365D01*
X141165720Y-75134280D01*
X141103099Y-75092439D01*
X140885660Y-74875000D01*
X144500000Y-74875000D01*
X144500000Y-75599456D01*
X144576120Y-75783227D01*
X144716773Y-75923879D01*
X144900544Y-76000000D01*
X145500000Y-76000000D01*
X145625000Y-75875000D01*
X145625000Y-74750000D01*
X145675000Y-74750000D01*
X145675000Y-75875000D01*
X145800000Y-76000000D01*
X146399456Y-76000000D01*
X146583227Y-75923879D01*
X146723880Y-75783227D01*
X146800000Y-75599456D01*
X146800000Y-74875000D01*
X146675000Y-74750000D01*
X145675000Y-74750000D01*
X145625000Y-74750000D01*
X144625000Y-74750000D01*
X144500000Y-74875000D01*
X140885660Y-74875000D01*
X140532565Y-74521905D01*
X140490720Y-74459280D01*
X140242635Y-74293516D01*
X140023866Y-74250000D01*
X140023865Y-74250000D01*
X139950000Y-74235307D01*
X139876135Y-74250000D01*
X139808816Y-74250000D01*
X139808816Y-74150000D01*
X139773891Y-73974419D01*
X139691121Y-73850544D01*
X144500000Y-73850544D01*
X144500000Y-74575000D01*
X144625000Y-74700000D01*
X145625000Y-74700000D01*
X145625000Y-73575000D01*
X145675000Y-73575000D01*
X145675000Y-74700000D01*
X146675000Y-74700000D01*
X146800000Y-74575000D01*
X146800000Y-73850544D01*
X146723880Y-73666773D01*
X146583227Y-73526121D01*
X146399456Y-73450000D01*
X145800000Y-73450000D01*
X145675000Y-73575000D01*
X145625000Y-73575000D01*
X145500000Y-73450000D01*
X144900544Y-73450000D01*
X144716773Y-73526121D01*
X144576120Y-73666773D01*
X144500000Y-73850544D01*
X139691121Y-73850544D01*
X139674432Y-73825568D01*
X139525581Y-73726109D01*
X139350000Y-73691184D01*
X137650000Y-73691184D01*
X137474419Y-73726109D01*
X137325568Y-73825568D01*
X137226109Y-73974419D01*
X137191184Y-74150000D01*
X137191184Y-74526001D01*
X137184573Y-74492765D01*
X136897247Y-74062753D01*
X136467235Y-73775427D01*
X136088037Y-73700000D01*
X135831963Y-73700000D01*
X135452765Y-73775427D01*
X135022753Y-74062753D01*
X134735427Y-74492765D01*
X134634532Y-75000000D01*
X134735427Y-75507235D01*
X135022753Y-75937247D01*
X135452765Y-76224573D01*
X135681142Y-76270000D01*
X135452765Y-76315427D01*
X135022753Y-76602753D01*
X134735427Y-77032765D01*
X134634532Y-77540000D01*
X134735427Y-78047235D01*
X135022753Y-78477247D01*
X135452765Y-78764573D01*
X135831963Y-78840000D01*
X135875381Y-78840000D01*
X135734280Y-78934280D01*
X135692438Y-78996902D01*
X135481905Y-79207435D01*
X135419280Y-79249280D01*
X135253516Y-79497366D01*
X135232428Y-79603382D01*
X135195307Y-79790000D01*
X135210000Y-79863865D01*
X135210000Y-80437638D01*
X135022753Y-80562753D01*
X134735427Y-80992765D01*
X134634532Y-81500000D01*
X134678466Y-81720874D01*
X134525000Y-81874340D01*
X134525000Y-72051706D01*
X134570659Y-71822162D01*
X134671396Y-71671398D01*
X134822163Y-71570659D01*
X135051706Y-71525000D01*
X141051706Y-71525000D01*
X141204845Y-71494539D01*
X141485100Y-71438793D01*
X141485105Y-71438793D01*
X141674357Y-71360402D01*
X141998779Y-71143630D01*
X141998782Y-71143629D01*
X142143629Y-70998781D01*
X142360399Y-70674360D01*
X142360402Y-70674357D01*
X142438792Y-70485105D01*
X142514912Y-70102422D01*
X142514912Y-70093088D01*
X142522027Y-70055789D01*
X142523235Y-70043018D01*
X142586461Y-69273970D01*
X144350000Y-69273970D01*
X144350000Y-70726030D01*
X144905679Y-72067559D01*
X145932441Y-73094321D01*
X147273970Y-73650000D01*
X148726030Y-73650000D01*
X150067559Y-73094321D01*
X151094321Y-72067559D01*
X151650000Y-70726030D01*
X151650000Y-69273970D01*
X151094321Y-67932441D01*
X150067559Y-66905679D01*
X148726030Y-66350000D01*
X147273970Y-66350000D01*
X145932441Y-66905679D01*
X144905679Y-67932441D01*
X144350000Y-69273970D01*
X142586461Y-69273970D01*
X142600265Y-69106078D01*
X142818771Y-68236168D01*
X143176426Y-67413619D01*
X143663617Y-66660537D01*
X144267266Y-65997136D01*
X144971161Y-65441233D01*
X145756398Y-65007758D01*
X146601887Y-64708355D01*
X147493994Y-64549446D01*
X147990814Y-64526016D01*
X148893922Y-64600265D01*
X148893922Y-64600265D01*
G37*
X148893922Y-64600265D02*
X149763832Y-64818771D01*
X150586381Y-65176426D01*
X151339463Y-65663617D01*
X152002864Y-66267266D01*
X152558767Y-66971161D01*
X152992242Y-67756398D01*
X153291645Y-68601887D01*
X153450554Y-69493994D01*
X153475583Y-70024731D01*
X153485088Y-70097915D01*
X153485088Y-70102422D01*
X153561207Y-70485100D01*
X153561207Y-70485105D01*
X153639598Y-70674357D01*
X153856370Y-70998779D01*
X153856371Y-70998782D01*
X154001219Y-71143629D01*
X154325640Y-71360399D01*
X154325643Y-71360402D01*
X154514895Y-71438792D01*
X154795155Y-71494539D01*
X154948294Y-71525000D01*
X161948294Y-71525000D01*
X162177838Y-71570659D01*
X162328602Y-71671396D01*
X162429341Y-71822163D01*
X162475000Y-72051706D01*
X162475000Y-82865052D01*
X162269802Y-82659853D01*
X162325468Y-82380000D01*
X162224573Y-81872765D01*
X161937247Y-81442753D01*
X161507235Y-81155427D01*
X161350946Y-81124339D01*
X161726569Y-80977806D01*
X162106682Y-80613150D01*
X162318313Y-80130789D01*
X162329239Y-80075842D01*
X162224745Y-79865000D01*
X161025000Y-79865000D01*
X161025000Y-79885000D01*
X160975000Y-79885000D01*
X160975000Y-79865000D01*
X159775255Y-79865000D01*
X159670761Y-80075842D01*
X159681687Y-80130789D01*
X159893318Y-80613150D01*
X160273431Y-80977806D01*
X160649054Y-81124339D01*
X160492765Y-81155427D01*
X160062753Y-81442753D01*
X159775427Y-81872765D01*
X159674532Y-82380000D01*
X159775427Y-82887235D01*
X160062753Y-83317247D01*
X160492765Y-83604573D01*
X160721142Y-83650000D01*
X160492765Y-83695427D01*
X160062753Y-83982753D01*
X159775427Y-84412765D01*
X159674532Y-84920000D01*
X159775427Y-85427235D01*
X160062753Y-85857247D01*
X160492765Y-86144573D01*
X160721142Y-86190000D01*
X160492765Y-86235427D01*
X160062753Y-86522753D01*
X159845869Y-86847341D01*
X158216049Y-85217522D01*
X158182575Y-85167425D01*
X157984108Y-85034813D01*
X157809091Y-85000000D01*
X157809086Y-85000000D01*
X157750000Y-84988247D01*
X157690914Y-85000000D01*
X154100000Y-85000000D01*
X154100000Y-84938172D01*
X156666546Y-82371627D01*
X156714551Y-82339551D01*
X156767406Y-82260449D01*
X156841592Y-82149421D01*
X156841637Y-82149354D01*
X156875000Y-81981628D01*
X156875000Y-81981624D01*
X156886263Y-81925001D01*
X156875000Y-81868377D01*
X156875000Y-77616624D01*
X156886263Y-77560000D01*
X156881458Y-77535842D01*
X159670761Y-77535842D01*
X159681687Y-77590789D01*
X159893318Y-78073150D01*
X160273431Y-78437806D01*
X160612296Y-78570000D01*
X160273431Y-78702194D01*
X159893318Y-79066850D01*
X159681687Y-79549211D01*
X159670761Y-79604158D01*
X159775255Y-79815000D01*
X160975000Y-79815000D01*
X160975000Y-78615229D01*
X160883719Y-78570000D01*
X160975000Y-78524771D01*
X160975000Y-77325000D01*
X161025000Y-77325000D01*
X161025000Y-78524771D01*
X161116281Y-78570000D01*
X161025000Y-78615229D01*
X161025000Y-79815000D01*
X162224745Y-79815000D01*
X162329239Y-79604158D01*
X162318313Y-79549211D01*
X162106682Y-79066850D01*
X161726569Y-78702194D01*
X161387704Y-78570000D01*
X161726569Y-78437806D01*
X162106682Y-78073150D01*
X162318313Y-77590789D01*
X162329239Y-77535842D01*
X162224745Y-77325000D01*
X161025000Y-77325000D01*
X160975000Y-77325000D01*
X159775255Y-77325000D01*
X159670761Y-77535842D01*
X156881458Y-77535842D01*
X156875000Y-77503376D01*
X156875000Y-77503372D01*
X156841637Y-77335646D01*
X156714551Y-77145449D01*
X156666546Y-77113373D01*
X156617331Y-77064158D01*
X159670761Y-77064158D01*
X159775255Y-77275000D01*
X160975000Y-77275000D01*
X160975000Y-76075229D01*
X161025000Y-76075229D01*
X161025000Y-77275000D01*
X162224745Y-77275000D01*
X162329239Y-77064158D01*
X162318313Y-77009211D01*
X162106682Y-76526850D01*
X161726569Y-76162194D01*
X161235843Y-75970758D01*
X161025000Y-76075229D01*
X160975000Y-76075229D01*
X160764157Y-75970758D01*
X160273431Y-76162194D01*
X159893318Y-76526850D01*
X159681687Y-77009211D01*
X159670761Y-77064158D01*
X156617331Y-77064158D01*
X156570000Y-77016827D01*
X156570000Y-76930816D01*
X156455819Y-76655159D01*
X156244841Y-76444181D01*
X155969184Y-76330000D01*
X155670816Y-76330000D01*
X155395159Y-76444181D01*
X155184181Y-76655159D01*
X155070000Y-76930816D01*
X155070000Y-77229184D01*
X155184181Y-77504841D01*
X155395159Y-77715819D01*
X155670816Y-77830000D01*
X155725000Y-77830000D01*
X155725001Y-81686826D01*
X153286828Y-84125000D01*
X153200816Y-84125000D01*
X152925159Y-84239181D01*
X152889340Y-84275000D01*
X152473528Y-84275000D01*
X151258816Y-83060289D01*
X151258816Y-81900000D01*
X151223891Y-81724419D01*
X151127393Y-81580000D01*
X151144340Y-81580000D01*
X151205159Y-81640819D01*
X151480816Y-81755000D01*
X151779184Y-81755000D01*
X152054841Y-81640819D01*
X152265819Y-81429841D01*
X152380000Y-81154184D01*
X152380000Y-80855816D01*
X152265819Y-80580159D01*
X152054841Y-80369181D01*
X151779184Y-80255000D01*
X151480816Y-80255000D01*
X151205159Y-80369181D01*
X151144340Y-80430000D01*
X150560268Y-80430000D01*
X151275268Y-79715000D01*
X153944340Y-79715000D01*
X154005159Y-79775819D01*
X154280816Y-79890000D01*
X154579184Y-79890000D01*
X154854841Y-79775819D01*
X155065819Y-79564841D01*
X155180000Y-79289184D01*
X155180000Y-78990816D01*
X155065819Y-78715159D01*
X154854841Y-78504181D01*
X154579184Y-78390000D01*
X154280816Y-78390000D01*
X154005159Y-78504181D01*
X153944340Y-78565000D01*
X151859569Y-78565000D01*
X153176628Y-77247940D01*
X153241954Y-77182614D01*
X153295159Y-77235819D01*
X153570816Y-77350000D01*
X153869184Y-77350000D01*
X154144841Y-77235819D01*
X154355819Y-77024841D01*
X154470000Y-76749184D01*
X154470000Y-76450816D01*
X154355819Y-76175159D01*
X154144841Y-75964181D01*
X153967957Y-75890913D01*
X155243871Y-74615000D01*
X157184340Y-74615000D01*
X157245159Y-74675819D01*
X157520816Y-74790000D01*
X157819184Y-74790000D01*
X158094841Y-74675819D01*
X158305819Y-74464841D01*
X158420000Y-74189184D01*
X158420000Y-73890816D01*
X158305819Y-73615159D01*
X158094841Y-73404181D01*
X157819184Y-73290000D01*
X157520816Y-73290000D01*
X157245159Y-73404181D01*
X157184340Y-73465000D01*
X156175660Y-73465000D01*
X156175819Y-73464841D01*
X156290000Y-73189184D01*
X156290000Y-72890816D01*
X156175819Y-72615159D01*
X155964841Y-72404181D01*
X155689184Y-72290000D01*
X155390816Y-72290000D01*
X155115159Y-72404181D01*
X154904181Y-72615159D01*
X154799892Y-72866935D01*
X151613744Y-76053084D01*
X151424841Y-75864181D01*
X151168750Y-75758105D01*
X151223891Y-75675581D01*
X151258816Y-75500000D01*
X151258816Y-73950000D01*
X151223891Y-73774419D01*
X151124432Y-73625568D01*
X150975581Y-73526109D01*
X150800000Y-73491184D01*
X149500000Y-73491184D01*
X149324419Y-73526109D01*
X149175568Y-73625568D01*
X149076109Y-73774419D01*
X149041184Y-73950000D01*
X149041184Y-75500000D01*
X149076109Y-75675581D01*
X149175568Y-75824432D01*
X149324419Y-75923891D01*
X149500000Y-75958816D01*
X149664800Y-75958816D01*
X149703372Y-76016544D01*
X149703374Y-76016546D01*
X149735450Y-76064551D01*
X149783455Y-76096627D01*
X150250000Y-76563173D01*
X150250000Y-76649184D01*
X150364181Y-76924841D01*
X150553084Y-77113744D01*
X148191818Y-79475010D01*
X140335650Y-79475010D01*
X141103099Y-78707561D01*
X141165720Y-78665720D01*
X141331484Y-78417635D01*
X141375000Y-78198866D01*
X141389693Y-78125001D01*
X141375000Y-78051136D01*
X141375000Y-75748864D01*
X141389693Y-75674999D01*
X141354883Y-75500000D01*
X141331484Y-75382365D01*
X141165720Y-75134280D01*
X141103099Y-75092439D01*
X140885660Y-74875000D01*
X144500000Y-74875000D01*
X144500000Y-75599456D01*
X144576120Y-75783227D01*
X144716773Y-75923879D01*
X144900544Y-76000000D01*
X145500000Y-76000000D01*
X145625000Y-75875000D01*
X145625000Y-74750000D01*
X145675000Y-74750000D01*
X145675000Y-75875000D01*
X145800000Y-76000000D01*
X146399456Y-76000000D01*
X146583227Y-75923879D01*
X146723880Y-75783227D01*
X146800000Y-75599456D01*
X146800000Y-74875000D01*
X146675000Y-74750000D01*
X145675000Y-74750000D01*
X145625000Y-74750000D01*
X144625000Y-74750000D01*
X144500000Y-74875000D01*
X140885660Y-74875000D01*
X140532565Y-74521905D01*
X140490720Y-74459280D01*
X140242635Y-74293516D01*
X140023866Y-74250000D01*
X140023865Y-74250000D01*
X139950000Y-74235307D01*
X139876135Y-74250000D01*
X139808816Y-74250000D01*
X139808816Y-74150000D01*
X139773891Y-73974419D01*
X139691121Y-73850544D01*
X144500000Y-73850544D01*
X144500000Y-74575000D01*
X144625000Y-74700000D01*
X145625000Y-74700000D01*
X145625000Y-73575000D01*
X145675000Y-73575000D01*
X145675000Y-74700000D01*
X146675000Y-74700000D01*
X146800000Y-74575000D01*
X146800000Y-73850544D01*
X146723880Y-73666773D01*
X146583227Y-73526121D01*
X146399456Y-73450000D01*
X145800000Y-73450000D01*
X145675000Y-73575000D01*
X145625000Y-73575000D01*
X145500000Y-73450000D01*
X144900544Y-73450000D01*
X144716773Y-73526121D01*
X144576120Y-73666773D01*
X144500000Y-73850544D01*
X139691121Y-73850544D01*
X139674432Y-73825568D01*
X139525581Y-73726109D01*
X139350000Y-73691184D01*
X137650000Y-73691184D01*
X137474419Y-73726109D01*
X137325568Y-73825568D01*
X137226109Y-73974419D01*
X137191184Y-74150000D01*
X137191184Y-74526001D01*
X137184573Y-74492765D01*
X136897247Y-74062753D01*
X136467235Y-73775427D01*
X136088037Y-73700000D01*
X135831963Y-73700000D01*
X135452765Y-73775427D01*
X135022753Y-74062753D01*
X134735427Y-74492765D01*
X134634532Y-75000000D01*
X134735427Y-75507235D01*
X135022753Y-75937247D01*
X135452765Y-76224573D01*
X135681142Y-76270000D01*
X135452765Y-76315427D01*
X135022753Y-76602753D01*
X134735427Y-77032765D01*
X134634532Y-77540000D01*
X134735427Y-78047235D01*
X135022753Y-78477247D01*
X135452765Y-78764573D01*
X135831963Y-78840000D01*
X135875381Y-78840000D01*
X135734280Y-78934280D01*
X135692438Y-78996902D01*
X135481905Y-79207435D01*
X135419280Y-79249280D01*
X135253516Y-79497366D01*
X135232428Y-79603382D01*
X135195307Y-79790000D01*
X135210000Y-79863865D01*
X135210000Y-80437638D01*
X135022753Y-80562753D01*
X134735427Y-80992765D01*
X134634532Y-81500000D01*
X134678466Y-81720874D01*
X134525000Y-81874340D01*
X134525000Y-72051706D01*
X134570659Y-71822162D01*
X134671396Y-71671398D01*
X134822163Y-71570659D01*
X135051706Y-71525000D01*
X141051706Y-71525000D01*
X141204845Y-71494539D01*
X141485100Y-71438793D01*
X141485105Y-71438793D01*
X141674357Y-71360402D01*
X141998779Y-71143630D01*
X141998782Y-71143629D01*
X142143629Y-70998781D01*
X142360399Y-70674360D01*
X142360402Y-70674357D01*
X142438792Y-70485105D01*
X142514912Y-70102422D01*
X142514912Y-70093088D01*
X142522027Y-70055789D01*
X142523235Y-70043018D01*
X142586461Y-69273970D01*
X144350000Y-69273970D01*
X144350000Y-70726030D01*
X144905679Y-72067559D01*
X145932441Y-73094321D01*
X147273970Y-73650000D01*
X148726030Y-73650000D01*
X150067559Y-73094321D01*
X151094321Y-72067559D01*
X151650000Y-70726030D01*
X151650000Y-69273970D01*
X151094321Y-67932441D01*
X150067559Y-66905679D01*
X148726030Y-66350000D01*
X147273970Y-66350000D01*
X145932441Y-66905679D01*
X144905679Y-67932441D01*
X144350000Y-69273970D01*
X142586461Y-69273970D01*
X142600265Y-69106078D01*
X142818771Y-68236168D01*
X143176426Y-67413619D01*
X143663617Y-66660537D01*
X144267266Y-65997136D01*
X144971161Y-65441233D01*
X145756398Y-65007758D01*
X146601887Y-64708355D01*
X147493994Y-64549446D01*
X147990814Y-64526016D01*
X148893922Y-64600265D01*
G36*
X135985000Y-86555000D02*
X136005000Y-86555000D01*
X136005000Y-86605000D01*
X135985000Y-86605000D01*
X135985000Y-86625000D01*
X135935000Y-86625000D01*
X135935000Y-86605000D01*
X135915000Y-86605000D01*
X135915000Y-86555000D01*
X135935000Y-86555000D01*
X135935000Y-86535000D01*
X135985000Y-86535000D01*
X135985000Y-86555000D01*
X135985000Y-86555000D01*
G37*
X135985000Y-86555000D02*
X136005000Y-86555000D01*
X136005000Y-86605000D01*
X135985000Y-86605000D01*
X135985000Y-86625000D01*
X135935000Y-86625000D01*
X135935000Y-86605000D01*
X135915000Y-86605000D01*
X135915000Y-86555000D01*
X135935000Y-86555000D01*
X135935000Y-86535000D01*
X135985000Y-86535000D01*
X135985000Y-86555000D01*
G36*
X144716773Y-81476121D02*
X144576120Y-81616773D01*
X144500000Y-81800544D01*
X144500000Y-82525000D01*
X144625000Y-82650000D01*
X145625000Y-82650000D01*
X145625000Y-82630000D01*
X145675000Y-82630000D01*
X145675000Y-82650000D01*
X145695000Y-82650000D01*
X145695000Y-82700000D01*
X145675000Y-82700000D01*
X145675000Y-82720000D01*
X145625000Y-82720000D01*
X145625000Y-82700000D01*
X144625000Y-82700000D01*
X144500000Y-82825000D01*
X144500000Y-83549456D01*
X144576120Y-83733227D01*
X144716773Y-83873879D01*
X144900544Y-83950000D01*
X145500000Y-83950000D01*
X145624998Y-83825002D01*
X145624998Y-83890026D01*
X145594419Y-83896109D01*
X145445568Y-83995568D01*
X145346109Y-84144419D01*
X145311184Y-84320000D01*
X145311184Y-84920000D01*
X145315730Y-84942856D01*
X145305892Y-84944813D01*
X145107425Y-85077425D01*
X145079386Y-85119387D01*
X145075000Y-85122318D01*
X145075000Y-84736623D01*
X145086263Y-84679999D01*
X145075000Y-84623376D01*
X145075000Y-84623372D01*
X145041637Y-84455646D01*
X144914551Y-84265449D01*
X144866546Y-84233373D01*
X142058202Y-81425030D01*
X144840117Y-81425030D01*
X144716773Y-81476121D01*
X144716773Y-81476121D01*
G37*
X144716773Y-81476121D02*
X144576120Y-81616773D01*
X144500000Y-81800544D01*
X144500000Y-82525000D01*
X144625000Y-82650000D01*
X145625000Y-82650000D01*
X145625000Y-82630000D01*
X145675000Y-82630000D01*
X145675000Y-82650000D01*
X145695000Y-82650000D01*
X145695000Y-82700000D01*
X145675000Y-82700000D01*
X145675000Y-82720000D01*
X145625000Y-82720000D01*
X145625000Y-82700000D01*
X144625000Y-82700000D01*
X144500000Y-82825000D01*
X144500000Y-83549456D01*
X144576120Y-83733227D01*
X144716773Y-83873879D01*
X144900544Y-83950000D01*
X145500000Y-83950000D01*
X145624998Y-83825002D01*
X145624998Y-83890026D01*
X145594419Y-83896109D01*
X145445568Y-83995568D01*
X145346109Y-84144419D01*
X145311184Y-84320000D01*
X145311184Y-84920000D01*
X145315730Y-84942856D01*
X145305892Y-84944813D01*
X145107425Y-85077425D01*
X145079386Y-85119387D01*
X145075000Y-85122318D01*
X145075000Y-84736623D01*
X145086263Y-84679999D01*
X145075000Y-84623376D01*
X145075000Y-84623372D01*
X145041637Y-84455646D01*
X144914551Y-84265449D01*
X144866546Y-84233373D01*
X142058202Y-81425030D01*
X144840117Y-81425030D01*
X144716773Y-81476121D01*
G36*
X139875000Y-75985660D02*
X139875001Y-77814339D01*
X139786859Y-77902480D01*
X139818313Y-77830789D01*
X139829239Y-77775842D01*
X139724745Y-77565000D01*
X138525000Y-77565000D01*
X138525000Y-77585000D01*
X138475000Y-77585000D01*
X138475000Y-77565000D01*
X138455000Y-77565000D01*
X138455000Y-77515000D01*
X138475000Y-77515000D01*
X138475000Y-77495000D01*
X138525000Y-77495000D01*
X138525000Y-77515000D01*
X139724745Y-77515000D01*
X139829239Y-77304158D01*
X139818313Y-77249211D01*
X139606682Y-76766850D01*
X139226569Y-76402194D01*
X138987204Y-76308816D01*
X139350000Y-76308816D01*
X139525581Y-76273891D01*
X139674432Y-76174432D01*
X139773891Y-76025581D01*
X139797289Y-75907949D01*
X139875000Y-75985660D01*
X139875000Y-75985660D01*
G37*
X139875000Y-75985660D02*
X139875001Y-77814339D01*
X139786859Y-77902480D01*
X139818313Y-77830789D01*
X139829239Y-77775842D01*
X139724745Y-77565000D01*
X138525000Y-77565000D01*
X138525000Y-77585000D01*
X138475000Y-77585000D01*
X138475000Y-77565000D01*
X138455000Y-77565000D01*
X138455000Y-77515000D01*
X138475000Y-77515000D01*
X138475000Y-77495000D01*
X138525000Y-77495000D01*
X138525000Y-77515000D01*
X139724745Y-77515000D01*
X139829239Y-77304158D01*
X139818313Y-77249211D01*
X139606682Y-76766850D01*
X139226569Y-76402194D01*
X138987204Y-76308816D01*
X139350000Y-76308816D01*
X139525581Y-76273891D01*
X139674432Y-76174432D01*
X139773891Y-76025581D01*
X139797289Y-75907949D01*
X139875000Y-75985660D01*
G04 #@! TD*
M02*
