M48
;DRILL file {KiCad (5.0.2)-1} date 06/03/2019 20:32:45
;FORMAT={-:-/ absolute / inch / decimal}
FMAT,2
INCH,TZ
T1C0.0118
T2C0.0394
T3C0.1260
%
G90
G05
T1
X5.5067Y-3.4311
X5.5161Y-3.3559
X5.5764Y-3.5071
X5.6545Y-3.3868
X5.6693Y-3.2091
X5.8035Y-3.0177
X5.8102Y-3.1031
X5.8331Y-3.6343
X5.898Y-3.5319
X5.9232Y-3.5012
X5.9409Y-3.4242
X5.9449Y-3.0118
X5.9697Y-3.1892
X5.9776Y-3.6516
X5.985Y-3.1484
X5.9902Y-3.3701
X6.0374Y-3.3415
X6.052Y-3.0157
X6.0799Y-3.1157
X6.1236Y-2.8756
X6.1346Y-3.0346
X6.1622Y-3.5055
X6.1988Y-3.4232
X6.2075Y-2.915
T2
X5.3528Y-3.5827
X5.3528Y-3.6827
X5.4528Y-3.5827
X5.4528Y-3.6827
X6.3386Y-3.0433
X6.3386Y-3.1433
X6.3386Y-3.2433
X6.3386Y-3.3433
X6.3386Y-3.4433
X6.3386Y-3.5433
X5.3528Y-3.2087
X5.3528Y-3.3087
X5.3528Y-3.4087
X5.4528Y-3.2087
X5.4528Y-3.3087
X5.4528Y-3.4087
X5.3528Y-2.9528
X5.3528Y-3.0528
X5.4528Y-2.9528
X5.4528Y-3.0528
T3
X5.8268Y-2.7559
X5.8268Y-3.8976
T0
M30
