G04 #@! TF.GenerationSoftware,KiCad,Pcbnew,(5.0.2)-1*
G04 #@! TF.CreationDate,2019-03-06T20:32:53+00:00*
G04 #@! TF.ProjectId,distanced,64697374-616e-4636-9564-2e6b69636164,rev?*
G04 #@! TF.SameCoordinates,Original*
G04 #@! TF.FileFunction,Legend,Top*
G04 #@! TF.FilePolarity,Positive*
%FSLAX46Y46*%
G04 Gerber Fmt 4.6, Leading zero omitted, Abs format (unit mm)*
G04 Created by KiCad (PCBNEW (5.0.2)-1) date 06/03/2019 20:32:53*
%MOMM*%
%LPD*%
G01*
G04 APERTURE LIST*
%ADD10C,0.300000*%
%ADD11C,0.125000*%
%ADD12C,0.250000*%
%ADD13C,0.150000*%
%ADD14C,0.120000*%
G04 APERTURE END LIST*
D10*
X157674285Y-95958571D02*
X158174285Y-97458571D01*
X158674285Y-95958571D01*
X159960000Y-97458571D02*
X159102857Y-97458571D01*
X159531428Y-97458571D02*
X159531428Y-95958571D01*
X159388571Y-96172857D01*
X159245714Y-96315714D01*
X159102857Y-96387142D01*
X160602857Y-97315714D02*
X160674285Y-97387142D01*
X160602857Y-97458571D01*
X160531428Y-97387142D01*
X160602857Y-97315714D01*
X160602857Y-97458571D01*
X161602857Y-95958571D02*
X161745714Y-95958571D01*
X161888571Y-96030000D01*
X161960000Y-96101428D01*
X162031428Y-96244285D01*
X162102857Y-96530000D01*
X162102857Y-96887142D01*
X162031428Y-97172857D01*
X161960000Y-97315714D01*
X161888571Y-97387142D01*
X161745714Y-97458571D01*
X161602857Y-97458571D01*
X161460000Y-97387142D01*
X161388571Y-97315714D01*
X161317142Y-97172857D01*
X161245714Y-96887142D01*
X161245714Y-96530000D01*
X161317142Y-96244285D01*
X161388571Y-96101428D01*
X161460000Y-96030000D01*
X161602857Y-95958571D01*
X145548571Y-94858571D02*
X145048571Y-94144285D01*
X144691428Y-94858571D02*
X144691428Y-93358571D01*
X145262857Y-93358571D01*
X145405714Y-93430000D01*
X145477142Y-93501428D01*
X145548571Y-93644285D01*
X145548571Y-93858571D01*
X145477142Y-94001428D01*
X145405714Y-94072857D01*
X145262857Y-94144285D01*
X144691428Y-94144285D01*
X146834285Y-94858571D02*
X146834285Y-94072857D01*
X146762857Y-93930000D01*
X146620000Y-93858571D01*
X146334285Y-93858571D01*
X146191428Y-93930000D01*
X146834285Y-94787142D02*
X146691428Y-94858571D01*
X146334285Y-94858571D01*
X146191428Y-94787142D01*
X146120000Y-94644285D01*
X146120000Y-94501428D01*
X146191428Y-94358571D01*
X146334285Y-94287142D01*
X146691428Y-94287142D01*
X146834285Y-94215714D01*
X147548571Y-94858571D02*
X147548571Y-93858571D01*
X147548571Y-93358571D02*
X147477142Y-93430000D01*
X147548571Y-93501428D01*
X147620000Y-93430000D01*
X147548571Y-93358571D01*
X147548571Y-93501428D01*
X148262857Y-93858571D02*
X148262857Y-94858571D01*
X148262857Y-94001428D02*
X148334285Y-93930000D01*
X148477142Y-93858571D01*
X148691428Y-93858571D01*
X148834285Y-93930000D01*
X148905714Y-94072857D01*
X148905714Y-94858571D01*
X149477142Y-93858571D02*
X149834285Y-94858571D01*
X150191428Y-93858571D02*
X149834285Y-94858571D01*
X149691428Y-95215714D01*
X149620000Y-95287142D01*
X149477142Y-95358571D01*
X143165714Y-91228571D02*
X142451428Y-91228571D01*
X142451428Y-89728571D01*
X143665714Y-90442857D02*
X144165714Y-90442857D01*
X144380000Y-91228571D02*
X143665714Y-91228571D01*
X143665714Y-89728571D01*
X144380000Y-89728571D01*
X145022857Y-91228571D02*
X145022857Y-89728571D01*
X145380000Y-89728571D01*
X145594285Y-89800000D01*
X145737142Y-89942857D01*
X145808571Y-90085714D01*
X145880000Y-90371428D01*
X145880000Y-90585714D01*
X145808571Y-90871428D01*
X145737142Y-91014285D01*
X145594285Y-91157142D01*
X145380000Y-91228571D01*
X145022857Y-91228571D01*
X151391428Y-89748571D02*
X151677142Y-89748571D01*
X151820000Y-89820000D01*
X151962857Y-89962857D01*
X152034285Y-90248571D01*
X152034285Y-90748571D01*
X151962857Y-91034285D01*
X151820000Y-91177142D01*
X151677142Y-91248571D01*
X151391428Y-91248571D01*
X151248571Y-91177142D01*
X151105714Y-91034285D01*
X151034285Y-90748571D01*
X151034285Y-90248571D01*
X151105714Y-89962857D01*
X151248571Y-89820000D01*
X151391428Y-89748571D01*
X152677142Y-91248571D02*
X152677142Y-89748571D01*
X153534285Y-91248571D01*
X153534285Y-89748571D01*
D11*
X137516190Y-85935714D02*
X137016190Y-85935714D01*
X137373333Y-85769047D01*
X137016190Y-85602380D01*
X137516190Y-85602380D01*
X137016190Y-85269047D02*
X137016190Y-85173809D01*
X137040000Y-85126190D01*
X137087619Y-85078571D01*
X137182857Y-85054761D01*
X137349523Y-85054761D01*
X137444761Y-85078571D01*
X137492380Y-85126190D01*
X137516190Y-85173809D01*
X137516190Y-85269047D01*
X137492380Y-85316666D01*
X137444761Y-85364285D01*
X137349523Y-85388095D01*
X137182857Y-85388095D01*
X137087619Y-85364285D01*
X137040000Y-85316666D01*
X137016190Y-85269047D01*
X137492380Y-84864285D02*
X137516190Y-84792857D01*
X137516190Y-84673809D01*
X137492380Y-84626190D01*
X137468571Y-84602380D01*
X137420952Y-84578571D01*
X137373333Y-84578571D01*
X137325714Y-84602380D01*
X137301904Y-84626190D01*
X137278095Y-84673809D01*
X137254285Y-84769047D01*
X137230476Y-84816666D01*
X137206666Y-84840476D01*
X137159047Y-84864285D01*
X137111428Y-84864285D01*
X137063809Y-84840476D01*
X137040000Y-84816666D01*
X137016190Y-84769047D01*
X137016190Y-84650000D01*
X137040000Y-84578571D01*
X137516190Y-84364285D02*
X137016190Y-84364285D01*
X140776190Y-86881428D02*
X140276190Y-86881428D01*
X140276190Y-86762380D01*
X140300000Y-86690952D01*
X140347619Y-86643333D01*
X140395238Y-86619523D01*
X140490476Y-86595714D01*
X140561904Y-86595714D01*
X140657142Y-86619523D01*
X140704761Y-86643333D01*
X140752380Y-86690952D01*
X140776190Y-86762380D01*
X140776190Y-86881428D01*
X140776190Y-86095714D02*
X140538095Y-86262380D01*
X140776190Y-86381428D02*
X140276190Y-86381428D01*
X140276190Y-86190952D01*
X140300000Y-86143333D01*
X140323809Y-86119523D01*
X140371428Y-86095714D01*
X140442857Y-86095714D01*
X140490476Y-86119523D01*
X140514285Y-86143333D01*
X140538095Y-86190952D01*
X140538095Y-86381428D01*
X140276190Y-85952857D02*
X140276190Y-85667142D01*
X140776190Y-85810000D02*
X140276190Y-85810000D01*
X140702380Y-84532857D02*
X140726190Y-84461428D01*
X140726190Y-84342380D01*
X140702380Y-84294761D01*
X140678571Y-84270952D01*
X140630952Y-84247142D01*
X140583333Y-84247142D01*
X140535714Y-84270952D01*
X140511904Y-84294761D01*
X140488095Y-84342380D01*
X140464285Y-84437619D01*
X140440476Y-84485238D01*
X140416666Y-84509047D01*
X140369047Y-84532857D01*
X140321428Y-84532857D01*
X140273809Y-84509047D01*
X140250000Y-84485238D01*
X140226190Y-84437619D01*
X140226190Y-84318571D01*
X140250000Y-84247142D01*
X140678571Y-83747142D02*
X140702380Y-83770952D01*
X140726190Y-83842380D01*
X140726190Y-83890000D01*
X140702380Y-83961428D01*
X140654761Y-84009047D01*
X140607142Y-84032857D01*
X140511904Y-84056666D01*
X140440476Y-84056666D01*
X140345238Y-84032857D01*
X140297619Y-84009047D01*
X140250000Y-83961428D01*
X140226190Y-83890000D01*
X140226190Y-83842380D01*
X140250000Y-83770952D01*
X140273809Y-83747142D01*
X140726190Y-83532857D02*
X140226190Y-83532857D01*
X140726190Y-83247142D02*
X140440476Y-83461428D01*
X140226190Y-83247142D02*
X140511904Y-83532857D01*
X140746190Y-82195714D02*
X140246190Y-82195714D01*
X140603333Y-82029047D01*
X140246190Y-81862380D01*
X140746190Y-81862380D01*
X140746190Y-81624285D02*
X140246190Y-81624285D01*
X140722380Y-81410000D02*
X140746190Y-81338571D01*
X140746190Y-81219523D01*
X140722380Y-81171904D01*
X140698571Y-81148095D01*
X140650952Y-81124285D01*
X140603333Y-81124285D01*
X140555714Y-81148095D01*
X140531904Y-81171904D01*
X140508095Y-81219523D01*
X140484285Y-81314761D01*
X140460476Y-81362380D01*
X140436666Y-81386190D01*
X140389047Y-81410000D01*
X140341428Y-81410000D01*
X140293809Y-81386190D01*
X140270000Y-81362380D01*
X140246190Y-81314761D01*
X140246190Y-81195714D01*
X140270000Y-81124285D01*
X140246190Y-80814761D02*
X140246190Y-80719523D01*
X140270000Y-80671904D01*
X140317619Y-80624285D01*
X140412857Y-80600476D01*
X140579523Y-80600476D01*
X140674761Y-80624285D01*
X140722380Y-80671904D01*
X140746190Y-80719523D01*
X140746190Y-80814761D01*
X140722380Y-80862380D01*
X140674761Y-80910000D01*
X140579523Y-80933809D01*
X140412857Y-80933809D01*
X140317619Y-80910000D01*
X140270000Y-80862380D01*
X140246190Y-80814761D01*
D12*
X142522380Y-85106190D02*
X141522380Y-85106190D01*
X142427142Y-84058571D02*
X142474761Y-84106190D01*
X142522380Y-84249047D01*
X142522380Y-84344285D01*
X142474761Y-84487142D01*
X142379523Y-84582380D01*
X142284285Y-84630000D01*
X142093809Y-84677619D01*
X141950952Y-84677619D01*
X141760476Y-84630000D01*
X141665238Y-84582380D01*
X141570000Y-84487142D01*
X141522380Y-84344285D01*
X141522380Y-84249047D01*
X141570000Y-84106190D01*
X141617619Y-84058571D01*
X142474761Y-83677619D02*
X142522380Y-83534761D01*
X142522380Y-83296666D01*
X142474761Y-83201428D01*
X142427142Y-83153809D01*
X142331904Y-83106190D01*
X142236666Y-83106190D01*
X142141428Y-83153809D01*
X142093809Y-83201428D01*
X142046190Y-83296666D01*
X141998571Y-83487142D01*
X141950952Y-83582380D01*
X141903333Y-83630000D01*
X141808095Y-83677619D01*
X141712857Y-83677619D01*
X141617619Y-83630000D01*
X141570000Y-83582380D01*
X141522380Y-83487142D01*
X141522380Y-83249047D01*
X141570000Y-83106190D01*
X142522380Y-82677619D02*
X141522380Y-82677619D01*
X141522380Y-82296666D01*
X141570000Y-82201428D01*
X141617619Y-82153809D01*
X141712857Y-82106190D01*
X141855714Y-82106190D01*
X141950952Y-82153809D01*
X141998571Y-82201428D01*
X142046190Y-82296666D01*
X142046190Y-82677619D01*
X161062380Y-93602857D02*
X160062380Y-93602857D01*
X160062380Y-93364761D01*
X160110000Y-93221904D01*
X160205238Y-93126666D01*
X160300476Y-93079047D01*
X160490952Y-93031428D01*
X160633809Y-93031428D01*
X160824285Y-93079047D01*
X160919523Y-93126666D01*
X161014761Y-93221904D01*
X161062380Y-93364761D01*
X161062380Y-93602857D01*
X161062380Y-92031428D02*
X160586190Y-92364761D01*
X161062380Y-92602857D02*
X160062380Y-92602857D01*
X160062380Y-92221904D01*
X160110000Y-92126666D01*
X160157619Y-92079047D01*
X160252857Y-92031428D01*
X160395714Y-92031428D01*
X160490952Y-92079047D01*
X160538571Y-92126666D01*
X160586190Y-92221904D01*
X160586190Y-92602857D01*
X160062380Y-91745714D02*
X160062380Y-91174285D01*
X161062380Y-91460000D02*
X160062380Y-91460000D01*
X157104285Y-86462380D02*
X157675714Y-86462380D01*
X157390000Y-87462380D02*
X157390000Y-86462380D01*
X157913809Y-86462380D02*
X158580476Y-87462380D01*
X158580476Y-86462380D02*
X157913809Y-87462380D01*
X159151904Y-86462380D02*
X159342380Y-86462380D01*
X159437619Y-86510000D01*
X159532857Y-86605238D01*
X159580476Y-86795714D01*
X159580476Y-87129047D01*
X159532857Y-87319523D01*
X159437619Y-87414761D01*
X159342380Y-87462380D01*
X159151904Y-87462380D01*
X159056666Y-87414761D01*
X158961428Y-87319523D01*
X158913809Y-87129047D01*
X158913809Y-86795714D01*
X158961428Y-86605238D01*
X159056666Y-86510000D01*
X159151904Y-86462380D01*
X158025238Y-85542380D02*
X157691904Y-85066190D01*
X157453809Y-85542380D02*
X157453809Y-84542380D01*
X157834761Y-84542380D01*
X157930000Y-84590000D01*
X157977619Y-84637619D01*
X158025238Y-84732857D01*
X158025238Y-84875714D01*
X157977619Y-84970952D01*
X157930000Y-85018571D01*
X157834761Y-85066190D01*
X157453809Y-85066190D01*
X158358571Y-84542380D02*
X159025238Y-85542380D01*
X159025238Y-84542380D02*
X158358571Y-85542380D01*
X159406190Y-85542380D02*
X159406190Y-84542380D01*
X157739523Y-82862380D02*
X157406190Y-82386190D01*
X157168095Y-82862380D02*
X157168095Y-81862380D01*
X157549047Y-81862380D01*
X157644285Y-81910000D01*
X157691904Y-81957619D01*
X157739523Y-82052857D01*
X157739523Y-82195714D01*
X157691904Y-82290952D01*
X157644285Y-82338571D01*
X157549047Y-82386190D01*
X157168095Y-82386190D01*
X158120476Y-82576666D02*
X158596666Y-82576666D01*
X158025238Y-82862380D02*
X158358571Y-81862380D01*
X158691904Y-82862380D01*
X158930000Y-81862380D02*
X159168095Y-82862380D01*
X159358571Y-82148095D01*
X159549047Y-82862380D01*
X159787142Y-81862380D01*
X157668095Y-79430000D02*
X157572857Y-79382380D01*
X157430000Y-79382380D01*
X157287142Y-79430000D01*
X157191904Y-79525238D01*
X157144285Y-79620476D01*
X157096666Y-79810952D01*
X157096666Y-79953809D01*
X157144285Y-80144285D01*
X157191904Y-80239523D01*
X157287142Y-80334761D01*
X157430000Y-80382380D01*
X157525238Y-80382380D01*
X157668095Y-80334761D01*
X157715714Y-80287142D01*
X157715714Y-79953809D01*
X157525238Y-79953809D01*
X158144285Y-80382380D02*
X158144285Y-79382380D01*
X158715714Y-80382380D01*
X158715714Y-79382380D01*
X159191904Y-80382380D02*
X159191904Y-79382380D01*
X159430000Y-79382380D01*
X159572857Y-79430000D01*
X159668095Y-79525238D01*
X159715714Y-79620476D01*
X159763333Y-79810952D01*
X159763333Y-79953809D01*
X159715714Y-80144285D01*
X159668095Y-80239523D01*
X159572857Y-80334761D01*
X159430000Y-80382380D01*
X159191904Y-80382380D01*
X157668095Y-76830000D02*
X157572857Y-76782380D01*
X157430000Y-76782380D01*
X157287142Y-76830000D01*
X157191904Y-76925238D01*
X157144285Y-77020476D01*
X157096666Y-77210952D01*
X157096666Y-77353809D01*
X157144285Y-77544285D01*
X157191904Y-77639523D01*
X157287142Y-77734761D01*
X157430000Y-77782380D01*
X157525238Y-77782380D01*
X157668095Y-77734761D01*
X157715714Y-77687142D01*
X157715714Y-77353809D01*
X157525238Y-77353809D01*
X158144285Y-77782380D02*
X158144285Y-76782380D01*
X158715714Y-77782380D01*
X158715714Y-76782380D01*
X159191904Y-77782380D02*
X159191904Y-76782380D01*
X159430000Y-76782380D01*
X159572857Y-76830000D01*
X159668095Y-76925238D01*
X159715714Y-77020476D01*
X159763333Y-77210952D01*
X159763333Y-77353809D01*
X159715714Y-77544285D01*
X159668095Y-77639523D01*
X159572857Y-77734761D01*
X159430000Y-77782380D01*
X159191904Y-77782380D01*
D11*
X135759047Y-87900000D02*
X135711428Y-87876190D01*
X135640000Y-87876190D01*
X135568571Y-87900000D01*
X135520952Y-87947619D01*
X135497142Y-87995238D01*
X135473333Y-88090476D01*
X135473333Y-88161904D01*
X135497142Y-88257142D01*
X135520952Y-88304761D01*
X135568571Y-88352380D01*
X135640000Y-88376190D01*
X135687619Y-88376190D01*
X135759047Y-88352380D01*
X135782857Y-88328571D01*
X135782857Y-88161904D01*
X135687619Y-88161904D01*
X135997142Y-88376190D02*
X135997142Y-87876190D01*
X136282857Y-88376190D01*
X136282857Y-87876190D01*
X136520952Y-88376190D02*
X136520952Y-87876190D01*
X136640000Y-87876190D01*
X136711428Y-87900000D01*
X136759047Y-87947619D01*
X136782857Y-87995238D01*
X136806666Y-88090476D01*
X136806666Y-88161904D01*
X136782857Y-88257142D01*
X136759047Y-88304761D01*
X136711428Y-88352380D01*
X136640000Y-88376190D01*
X136520952Y-88376190D01*
D12*
X137869523Y-89582380D02*
X137536190Y-89106190D01*
X137298095Y-89582380D02*
X137298095Y-88582380D01*
X137679047Y-88582380D01*
X137774285Y-88630000D01*
X137821904Y-88677619D01*
X137869523Y-88772857D01*
X137869523Y-88915714D01*
X137821904Y-89010952D01*
X137774285Y-89058571D01*
X137679047Y-89106190D01*
X137298095Y-89106190D01*
X138250476Y-89296666D02*
X138726666Y-89296666D01*
X138155238Y-89582380D02*
X138488571Y-88582380D01*
X138821904Y-89582380D01*
X139060000Y-88582380D02*
X139298095Y-89582380D01*
X139488571Y-88868095D01*
X139679047Y-89582380D01*
X139917142Y-88582380D01*
X137869523Y-73452380D02*
X137536190Y-72976190D01*
X137298095Y-73452380D02*
X137298095Y-72452380D01*
X137679047Y-72452380D01*
X137774285Y-72500000D01*
X137821904Y-72547619D01*
X137869523Y-72642857D01*
X137869523Y-72785714D01*
X137821904Y-72880952D01*
X137774285Y-72928571D01*
X137679047Y-72976190D01*
X137298095Y-72976190D01*
X138250476Y-73166666D02*
X138726666Y-73166666D01*
X138155238Y-73452380D02*
X138488571Y-72452380D01*
X138821904Y-73452380D01*
X139060000Y-72452380D02*
X139298095Y-73452380D01*
X139488571Y-72738095D01*
X139679047Y-73452380D01*
X139917142Y-72452380D01*
X135601904Y-73376666D02*
X136078095Y-73376666D01*
X135506666Y-73662380D02*
X135840000Y-72662380D01*
X136173333Y-73662380D01*
X135831904Y-89506666D02*
X136308095Y-89506666D01*
X135736666Y-89792380D02*
X136070000Y-88792380D01*
X136403333Y-89792380D01*
X136061428Y-95308571D02*
X136204285Y-95356190D01*
X136251904Y-95403809D01*
X136299523Y-95499047D01*
X136299523Y-95641904D01*
X136251904Y-95737142D01*
X136204285Y-95784761D01*
X136109047Y-95832380D01*
X135728095Y-95832380D01*
X135728095Y-94832380D01*
X136061428Y-94832380D01*
X136156666Y-94880000D01*
X136204285Y-94927619D01*
X136251904Y-95022857D01*
X136251904Y-95118095D01*
X136204285Y-95213333D01*
X136156666Y-95260952D01*
X136061428Y-95308571D01*
X135728095Y-95308571D01*
X136041428Y-79338571D02*
X136184285Y-79386190D01*
X136231904Y-79433809D01*
X136279523Y-79529047D01*
X136279523Y-79671904D01*
X136231904Y-79767142D01*
X136184285Y-79814761D01*
X136089047Y-79862380D01*
X135708095Y-79862380D01*
X135708095Y-78862380D01*
X136041428Y-78862380D01*
X136136666Y-78910000D01*
X136184285Y-78957619D01*
X136231904Y-79052857D01*
X136231904Y-79148095D01*
X136184285Y-79243333D01*
X136136666Y-79290952D01*
X136041428Y-79338571D01*
X135708095Y-79338571D01*
X137848095Y-78800000D02*
X137752857Y-78752380D01*
X137610000Y-78752380D01*
X137467142Y-78800000D01*
X137371904Y-78895238D01*
X137324285Y-78990476D01*
X137276666Y-79180952D01*
X137276666Y-79323809D01*
X137324285Y-79514285D01*
X137371904Y-79609523D01*
X137467142Y-79704761D01*
X137610000Y-79752380D01*
X137705238Y-79752380D01*
X137848095Y-79704761D01*
X137895714Y-79657142D01*
X137895714Y-79323809D01*
X137705238Y-79323809D01*
X138324285Y-79752380D02*
X138324285Y-78752380D01*
X138895714Y-79752380D01*
X138895714Y-78752380D01*
X139371904Y-79752380D02*
X139371904Y-78752380D01*
X139610000Y-78752380D01*
X139752857Y-78800000D01*
X139848095Y-78895238D01*
X139895714Y-78990476D01*
X139943333Y-79180952D01*
X139943333Y-79323809D01*
X139895714Y-79514285D01*
X139848095Y-79609523D01*
X139752857Y-79704761D01*
X139610000Y-79752380D01*
X139371904Y-79752380D01*
X137898095Y-94920000D02*
X137802857Y-94872380D01*
X137660000Y-94872380D01*
X137517142Y-94920000D01*
X137421904Y-95015238D01*
X137374285Y-95110476D01*
X137326666Y-95300952D01*
X137326666Y-95443809D01*
X137374285Y-95634285D01*
X137421904Y-95729523D01*
X137517142Y-95824761D01*
X137660000Y-95872380D01*
X137755238Y-95872380D01*
X137898095Y-95824761D01*
X137945714Y-95777142D01*
X137945714Y-95443809D01*
X137755238Y-95443809D01*
X138374285Y-95872380D02*
X138374285Y-94872380D01*
X138945714Y-95872380D01*
X138945714Y-94872380D01*
X139421904Y-95872380D02*
X139421904Y-94872380D01*
X139660000Y-94872380D01*
X139802857Y-94920000D01*
X139898095Y-95015238D01*
X139945714Y-95110476D01*
X139993333Y-95300952D01*
X139993333Y-95443809D01*
X139945714Y-95634285D01*
X139898095Y-95729523D01*
X139802857Y-95824761D01*
X139660000Y-95872380D01*
X139421904Y-95872380D01*
D10*
X151592142Y-94988571D02*
X151592142Y-93488571D01*
X151949285Y-93488571D01*
X152163571Y-93560000D01*
X152306428Y-93702857D01*
X152377857Y-93845714D01*
X152449285Y-94131428D01*
X152449285Y-94345714D01*
X152377857Y-94631428D01*
X152306428Y-94774285D01*
X152163571Y-94917142D01*
X151949285Y-94988571D01*
X151592142Y-94988571D01*
X153092142Y-94988571D02*
X153092142Y-93988571D01*
X153092142Y-93488571D02*
X153020714Y-93560000D01*
X153092142Y-93631428D01*
X153163571Y-93560000D01*
X153092142Y-93488571D01*
X153092142Y-93631428D01*
X153735000Y-94917142D02*
X153877857Y-94988571D01*
X154163571Y-94988571D01*
X154306428Y-94917142D01*
X154377857Y-94774285D01*
X154377857Y-94702857D01*
X154306428Y-94560000D01*
X154163571Y-94488571D01*
X153949285Y-94488571D01*
X153806428Y-94417142D01*
X153735000Y-94274285D01*
X153735000Y-94202857D01*
X153806428Y-94060000D01*
X153949285Y-93988571D01*
X154163571Y-93988571D01*
X154306428Y-94060000D01*
X154806428Y-93988571D02*
X155377857Y-93988571D01*
X155020714Y-93488571D02*
X155020714Y-94774285D01*
X155092142Y-94917142D01*
X155235000Y-94988571D01*
X155377857Y-94988571D01*
X156520714Y-94988571D02*
X156520714Y-94202857D01*
X156449285Y-94060000D01*
X156306428Y-93988571D01*
X156020714Y-93988571D01*
X155877857Y-94060000D01*
X156520714Y-94917142D02*
X156377857Y-94988571D01*
X156020714Y-94988571D01*
X155877857Y-94917142D01*
X155806428Y-94774285D01*
X155806428Y-94631428D01*
X155877857Y-94488571D01*
X156020714Y-94417142D01*
X156377857Y-94417142D01*
X156520714Y-94345714D01*
X157235000Y-93988571D02*
X157235000Y-94988571D01*
X157235000Y-94131428D02*
X157306428Y-94060000D01*
X157449285Y-93988571D01*
X157663571Y-93988571D01*
X157806428Y-94060000D01*
X157877857Y-94202857D01*
X157877857Y-94988571D01*
X159235000Y-94917142D02*
X159092142Y-94988571D01*
X158806428Y-94988571D01*
X158663571Y-94917142D01*
X158592142Y-94845714D01*
X158520714Y-94702857D01*
X158520714Y-94274285D01*
X158592142Y-94131428D01*
X158663571Y-94060000D01*
X158806428Y-93988571D01*
X159092142Y-93988571D01*
X159235000Y-94060000D01*
X160449285Y-94917142D02*
X160306428Y-94988571D01*
X160020714Y-94988571D01*
X159877857Y-94917142D01*
X159806428Y-94774285D01*
X159806428Y-94202857D01*
X159877857Y-94060000D01*
X160020714Y-93988571D01*
X160306428Y-93988571D01*
X160449285Y-94060000D01*
X160520714Y-94202857D01*
X160520714Y-94345714D01*
X159806428Y-94488571D01*
X161806428Y-94988571D02*
X161806428Y-93488571D01*
X161806428Y-94917142D02*
X161663571Y-94988571D01*
X161377857Y-94988571D01*
X161235000Y-94917142D01*
X161163571Y-94845714D01*
X161092142Y-94702857D01*
X161092142Y-94274285D01*
X161163571Y-94131428D01*
X161235000Y-94060000D01*
X161377857Y-93988571D01*
X161663571Y-93988571D01*
X161806428Y-94060000D01*
D13*
G04 #@! TO.C,LSR2*
X148280000Y-88156000D02*
G75*
G03X148280000Y-88156000I-200000J0D01*
G01*
X148480000Y-89756000D02*
G75*
G03X148480000Y-89756000I-400000J0D01*
G01*
X146880000Y-90956000D02*
X149280000Y-90956000D01*
X149280000Y-90956000D02*
X149280000Y-86956000D01*
X149280000Y-86956000D02*
X146880000Y-86956000D01*
X146880000Y-86956000D02*
X146880000Y-90956000D01*
D14*
G04 #@! TO.C,C6*
X158850000Y-90090000D02*
X158850000Y-89590000D01*
X157910000Y-89590000D02*
X157910000Y-90090000D01*
G04 #@! TO.C,R1*
X152870000Y-87950000D02*
X152870000Y-88450000D01*
X153930000Y-88450000D02*
X153930000Y-87950000D01*
G04 #@! TO.C,R4*
X143630000Y-88550000D02*
X143630000Y-88050000D01*
X142570000Y-88050000D02*
X142570000Y-88550000D01*
G04 #@! TO.C,R5*
X158180000Y-87720000D02*
X157680000Y-87720000D01*
X157680000Y-88780000D02*
X158180000Y-88780000D01*
G04 #@! TO.C,D2*
X144050000Y-89450000D02*
X144950000Y-89450000D01*
X144950000Y-89450000D02*
X144950000Y-88000000D01*
X144050000Y-89450000D02*
X144050000Y-88000000D01*
G04 #@! TO.C,SWRST1*
X151100000Y-75550000D02*
X151350000Y-75550000D01*
X151350000Y-75550000D02*
X151350000Y-81850000D01*
X151350000Y-81850000D02*
X151100000Y-81850000D01*
X146600000Y-75550000D02*
X149200000Y-75550000D01*
X144700000Y-81850000D02*
X144450000Y-81850000D01*
X144450000Y-81850000D02*
X144450000Y-75550000D01*
X144450000Y-75550000D02*
X144700000Y-75550000D01*
X149200000Y-81850000D02*
X146600000Y-81850000D01*
G04 #@! TO.C,D4*
X146740000Y-84170000D02*
X145600000Y-84170000D01*
X145600000Y-84170000D02*
X145600000Y-86270000D01*
X146740000Y-84170000D02*
X146740000Y-86270000D01*
G04 #@! TO.C,D1*
X151550000Y-89350000D02*
X152450000Y-89350000D01*
X152450000Y-89350000D02*
X152450000Y-87900000D01*
X151550000Y-89350000D02*
X151550000Y-87900000D01*
G04 #@! TO.C,C13*
X149680000Y-91060000D02*
X149180000Y-91060000D01*
X149180000Y-92000000D02*
X149680000Y-92000000D01*
G04 #@! TO.C,C14*
X146480000Y-92000000D02*
X146980000Y-92000000D01*
X146980000Y-91060000D02*
X146480000Y-91060000D01*
G04 #@! TO.C,R12*
X149410000Y-86230000D02*
X149410000Y-85730000D01*
X148350000Y-85730000D02*
X148350000Y-86230000D01*
G04 #@! TO.C,R13*
X147810000Y-86210000D02*
X147810000Y-85710000D01*
X146750000Y-85710000D02*
X146750000Y-86210000D01*
G04 #@! TO.C,LSR2*
D13*
X150682380Y-90022857D02*
X150682380Y-90499047D01*
X149682380Y-90499047D01*
X150634761Y-89737142D02*
X150682380Y-89594285D01*
X150682380Y-89356190D01*
X150634761Y-89260952D01*
X150587142Y-89213333D01*
X150491904Y-89165714D01*
X150396666Y-89165714D01*
X150301428Y-89213333D01*
X150253809Y-89260952D01*
X150206190Y-89356190D01*
X150158571Y-89546666D01*
X150110952Y-89641904D01*
X150063333Y-89689523D01*
X149968095Y-89737142D01*
X149872857Y-89737142D01*
X149777619Y-89689523D01*
X149730000Y-89641904D01*
X149682380Y-89546666D01*
X149682380Y-89308571D01*
X149730000Y-89165714D01*
X150682380Y-88165714D02*
X150206190Y-88499047D01*
X150682380Y-88737142D02*
X149682380Y-88737142D01*
X149682380Y-88356190D01*
X149730000Y-88260952D01*
X149777619Y-88213333D01*
X149872857Y-88165714D01*
X150015714Y-88165714D01*
X150110952Y-88213333D01*
X150158571Y-88260952D01*
X150206190Y-88356190D01*
X150206190Y-88737142D01*
X149777619Y-87784761D02*
X149730000Y-87737142D01*
X149682380Y-87641904D01*
X149682380Y-87403809D01*
X149730000Y-87308571D01*
X149777619Y-87260952D01*
X149872857Y-87213333D01*
X149968095Y-87213333D01*
X150110952Y-87260952D01*
X150682380Y-87832380D01*
X150682380Y-87213333D01*
G04 #@! TO.C,C6*
D11*
X158678571Y-91933333D02*
X158702380Y-91957142D01*
X158726190Y-92028571D01*
X158726190Y-92076190D01*
X158702380Y-92147619D01*
X158654761Y-92195238D01*
X158607142Y-92219047D01*
X158511904Y-92242857D01*
X158440476Y-92242857D01*
X158345238Y-92219047D01*
X158297619Y-92195238D01*
X158250000Y-92147619D01*
X158226190Y-92076190D01*
X158226190Y-92028571D01*
X158250000Y-91957142D01*
X158273809Y-91933333D01*
X158226190Y-91504761D02*
X158226190Y-91600000D01*
X158250000Y-91647619D01*
X158273809Y-91671428D01*
X158345238Y-91719047D01*
X158440476Y-91742857D01*
X158630952Y-91742857D01*
X158678571Y-91719047D01*
X158702380Y-91695238D01*
X158726190Y-91647619D01*
X158726190Y-91552380D01*
X158702380Y-91504761D01*
X158678571Y-91480952D01*
X158630952Y-91457142D01*
X158511904Y-91457142D01*
X158464285Y-91480952D01*
X158440476Y-91504761D01*
X158416666Y-91552380D01*
X158416666Y-91647619D01*
X158440476Y-91695238D01*
X158464285Y-91719047D01*
X158511904Y-91742857D01*
G04 #@! TO.C,R1*
X154946190Y-88113333D02*
X154708095Y-88280000D01*
X154946190Y-88399047D02*
X154446190Y-88399047D01*
X154446190Y-88208571D01*
X154470000Y-88160952D01*
X154493809Y-88137142D01*
X154541428Y-88113333D01*
X154612857Y-88113333D01*
X154660476Y-88137142D01*
X154684285Y-88160952D01*
X154708095Y-88208571D01*
X154708095Y-88399047D01*
X154946190Y-87637142D02*
X154946190Y-87922857D01*
X154946190Y-87780000D02*
X154446190Y-87780000D01*
X154517619Y-87827619D01*
X154565238Y-87875238D01*
X154589047Y-87922857D01*
G04 #@! TO.C,R4*
X142176190Y-88233333D02*
X141938095Y-88400000D01*
X142176190Y-88519047D02*
X141676190Y-88519047D01*
X141676190Y-88328571D01*
X141700000Y-88280952D01*
X141723809Y-88257142D01*
X141771428Y-88233333D01*
X141842857Y-88233333D01*
X141890476Y-88257142D01*
X141914285Y-88280952D01*
X141938095Y-88328571D01*
X141938095Y-88519047D01*
X141842857Y-87804761D02*
X142176190Y-87804761D01*
X141652380Y-87923809D02*
X142009523Y-88042857D01*
X142009523Y-87733333D01*
G04 #@! TO.C,R5*
X156416666Y-89226190D02*
X156250000Y-88988095D01*
X156130952Y-89226190D02*
X156130952Y-88726190D01*
X156321428Y-88726190D01*
X156369047Y-88750000D01*
X156392857Y-88773809D01*
X156416666Y-88821428D01*
X156416666Y-88892857D01*
X156392857Y-88940476D01*
X156369047Y-88964285D01*
X156321428Y-88988095D01*
X156130952Y-88988095D01*
X156869047Y-88726190D02*
X156630952Y-88726190D01*
X156607142Y-88964285D01*
X156630952Y-88940476D01*
X156678571Y-88916666D01*
X156797619Y-88916666D01*
X156845238Y-88940476D01*
X156869047Y-88964285D01*
X156892857Y-89011904D01*
X156892857Y-89130952D01*
X156869047Y-89178571D01*
X156845238Y-89202380D01*
X156797619Y-89226190D01*
X156678571Y-89226190D01*
X156630952Y-89202380D01*
X156607142Y-89178571D01*
G04 #@! TO.C,D2*
X145340952Y-88696190D02*
X145340952Y-88196190D01*
X145460000Y-88196190D01*
X145531428Y-88220000D01*
X145579047Y-88267619D01*
X145602857Y-88315238D01*
X145626666Y-88410476D01*
X145626666Y-88481904D01*
X145602857Y-88577142D01*
X145579047Y-88624761D01*
X145531428Y-88672380D01*
X145460000Y-88696190D01*
X145340952Y-88696190D01*
X145817142Y-88243809D02*
X145840952Y-88220000D01*
X145888571Y-88196190D01*
X146007619Y-88196190D01*
X146055238Y-88220000D01*
X146079047Y-88243809D01*
X146102857Y-88291428D01*
X146102857Y-88339047D01*
X146079047Y-88410476D01*
X145793333Y-88696190D01*
X146102857Y-88696190D01*
G04 #@! TO.C,SWRST1*
D13*
X145079523Y-78824761D02*
X145222380Y-78872380D01*
X145460476Y-78872380D01*
X145555714Y-78824761D01*
X145603333Y-78777142D01*
X145650952Y-78681904D01*
X145650952Y-78586666D01*
X145603333Y-78491428D01*
X145555714Y-78443809D01*
X145460476Y-78396190D01*
X145270000Y-78348571D01*
X145174761Y-78300952D01*
X145127142Y-78253333D01*
X145079523Y-78158095D01*
X145079523Y-78062857D01*
X145127142Y-77967619D01*
X145174761Y-77920000D01*
X145270000Y-77872380D01*
X145508095Y-77872380D01*
X145650952Y-77920000D01*
X145984285Y-77872380D02*
X146222380Y-78872380D01*
X146412857Y-78158095D01*
X146603333Y-78872380D01*
X146841428Y-77872380D01*
X147793809Y-78872380D02*
X147460476Y-78396190D01*
X147222380Y-78872380D02*
X147222380Y-77872380D01*
X147603333Y-77872380D01*
X147698571Y-77920000D01*
X147746190Y-77967619D01*
X147793809Y-78062857D01*
X147793809Y-78205714D01*
X147746190Y-78300952D01*
X147698571Y-78348571D01*
X147603333Y-78396190D01*
X147222380Y-78396190D01*
X148174761Y-78824761D02*
X148317619Y-78872380D01*
X148555714Y-78872380D01*
X148650952Y-78824761D01*
X148698571Y-78777142D01*
X148746190Y-78681904D01*
X148746190Y-78586666D01*
X148698571Y-78491428D01*
X148650952Y-78443809D01*
X148555714Y-78396190D01*
X148365238Y-78348571D01*
X148270000Y-78300952D01*
X148222380Y-78253333D01*
X148174761Y-78158095D01*
X148174761Y-78062857D01*
X148222380Y-77967619D01*
X148270000Y-77920000D01*
X148365238Y-77872380D01*
X148603333Y-77872380D01*
X148746190Y-77920000D01*
X149031904Y-77872380D02*
X149603333Y-77872380D01*
X149317619Y-78872380D02*
X149317619Y-77872380D01*
X150460476Y-78872380D02*
X149889047Y-78872380D01*
X150174761Y-78872380D02*
X150174761Y-77872380D01*
X150079523Y-78015238D01*
X149984285Y-78110476D01*
X149889047Y-78158095D01*
G04 #@! TO.C,D4*
D11*
X145106190Y-85309047D02*
X144606190Y-85309047D01*
X144606190Y-85190000D01*
X144630000Y-85118571D01*
X144677619Y-85070952D01*
X144725238Y-85047142D01*
X144820476Y-85023333D01*
X144891904Y-85023333D01*
X144987142Y-85047142D01*
X145034761Y-85070952D01*
X145082380Y-85118571D01*
X145106190Y-85190000D01*
X145106190Y-85309047D01*
X144772857Y-84594761D02*
X145106190Y-84594761D01*
X144582380Y-84713809D02*
X144939523Y-84832857D01*
X144939523Y-84523333D01*
G04 #@! TO.C,D1*
X151640952Y-86976190D02*
X151640952Y-86476190D01*
X151760000Y-86476190D01*
X151831428Y-86500000D01*
X151879047Y-86547619D01*
X151902857Y-86595238D01*
X151926666Y-86690476D01*
X151926666Y-86761904D01*
X151902857Y-86857142D01*
X151879047Y-86904761D01*
X151831428Y-86952380D01*
X151760000Y-86976190D01*
X151640952Y-86976190D01*
X152402857Y-86976190D02*
X152117142Y-86976190D01*
X152260000Y-86976190D02*
X152260000Y-86476190D01*
X152212380Y-86547619D01*
X152164761Y-86595238D01*
X152117142Y-86619047D01*
G04 #@! TO.C,C13*
X151898571Y-92488571D02*
X151874761Y-92512380D01*
X151803333Y-92536190D01*
X151755714Y-92536190D01*
X151684285Y-92512380D01*
X151636666Y-92464761D01*
X151612857Y-92417142D01*
X151589047Y-92321904D01*
X151589047Y-92250476D01*
X151612857Y-92155238D01*
X151636666Y-92107619D01*
X151684285Y-92060000D01*
X151755714Y-92036190D01*
X151803333Y-92036190D01*
X151874761Y-92060000D01*
X151898571Y-92083809D01*
X152374761Y-92536190D02*
X152089047Y-92536190D01*
X152231904Y-92536190D02*
X152231904Y-92036190D01*
X152184285Y-92107619D01*
X152136666Y-92155238D01*
X152089047Y-92179047D01*
X152541428Y-92036190D02*
X152850952Y-92036190D01*
X152684285Y-92226666D01*
X152755714Y-92226666D01*
X152803333Y-92250476D01*
X152827142Y-92274285D01*
X152850952Y-92321904D01*
X152850952Y-92440952D01*
X152827142Y-92488571D01*
X152803333Y-92512380D01*
X152755714Y-92536190D01*
X152612857Y-92536190D01*
X152565238Y-92512380D01*
X152541428Y-92488571D01*
G04 #@! TO.C,C14*
X145438571Y-92568571D02*
X145414761Y-92592380D01*
X145343333Y-92616190D01*
X145295714Y-92616190D01*
X145224285Y-92592380D01*
X145176666Y-92544761D01*
X145152857Y-92497142D01*
X145129047Y-92401904D01*
X145129047Y-92330476D01*
X145152857Y-92235238D01*
X145176666Y-92187619D01*
X145224285Y-92140000D01*
X145295714Y-92116190D01*
X145343333Y-92116190D01*
X145414761Y-92140000D01*
X145438571Y-92163809D01*
X145914761Y-92616190D02*
X145629047Y-92616190D01*
X145771904Y-92616190D02*
X145771904Y-92116190D01*
X145724285Y-92187619D01*
X145676666Y-92235238D01*
X145629047Y-92259047D01*
X146343333Y-92282857D02*
X146343333Y-92616190D01*
X146224285Y-92092380D02*
X146105238Y-92449523D01*
X146414761Y-92449523D01*
G04 #@! TO.C,R12*
X150126190Y-86231428D02*
X149888095Y-86398095D01*
X150126190Y-86517142D02*
X149626190Y-86517142D01*
X149626190Y-86326666D01*
X149650000Y-86279047D01*
X149673809Y-86255238D01*
X149721428Y-86231428D01*
X149792857Y-86231428D01*
X149840476Y-86255238D01*
X149864285Y-86279047D01*
X149888095Y-86326666D01*
X149888095Y-86517142D01*
X150126190Y-85755238D02*
X150126190Y-86040952D01*
X150126190Y-85898095D02*
X149626190Y-85898095D01*
X149697619Y-85945714D01*
X149745238Y-85993333D01*
X149769047Y-86040952D01*
X149673809Y-85564761D02*
X149650000Y-85540952D01*
X149626190Y-85493333D01*
X149626190Y-85374285D01*
X149650000Y-85326666D01*
X149673809Y-85302857D01*
X149721428Y-85279047D01*
X149769047Y-85279047D01*
X149840476Y-85302857D01*
X150126190Y-85588571D01*
X150126190Y-85279047D01*
G04 #@! TO.C,R13*
X148296190Y-84831428D02*
X148058095Y-84998095D01*
X148296190Y-85117142D02*
X147796190Y-85117142D01*
X147796190Y-84926666D01*
X147820000Y-84879047D01*
X147843809Y-84855238D01*
X147891428Y-84831428D01*
X147962857Y-84831428D01*
X148010476Y-84855238D01*
X148034285Y-84879047D01*
X148058095Y-84926666D01*
X148058095Y-85117142D01*
X148296190Y-84355238D02*
X148296190Y-84640952D01*
X148296190Y-84498095D02*
X147796190Y-84498095D01*
X147867619Y-84545714D01*
X147915238Y-84593333D01*
X147939047Y-84640952D01*
X147796190Y-84188571D02*
X147796190Y-83879047D01*
X147986666Y-84045714D01*
X147986666Y-83974285D01*
X148010476Y-83926666D01*
X148034285Y-83902857D01*
X148081904Y-83879047D01*
X148200952Y-83879047D01*
X148248571Y-83902857D01*
X148272380Y-83926666D01*
X148296190Y-83974285D01*
X148296190Y-84117142D01*
X148272380Y-84164761D01*
X148248571Y-84188571D01*
G04 #@! TD*
M02*
