G04 #@! TF.GenerationSoftware,KiCad,Pcbnew,(5.0.2)-1*
G04 #@! TF.CreationDate,2019-03-06T20:32:53+00:00*
G04 #@! TF.ProjectId,distanced,64697374-616e-4636-9564-2e6b69636164,rev?*
G04 #@! TF.SameCoordinates,Original*
G04 #@! TF.FileFunction,Soldermask,Bot*
G04 #@! TF.FilePolarity,Negative*
%FSLAX46Y46*%
G04 Gerber Fmt 4.6, Leading zero omitted, Abs format (unit mm)*
G04 Created by KiCad (PCBNEW (5.0.2)-1) date 06/03/2019 20:32:53*
%MOMM*%
%LPD*%
G01*
G04 APERTURE LIST*
%ADD10C,0.150000*%
G04 APERTURE END LIST*
D10*
G36*
X148991743Y-95730660D02*
X149610503Y-95986958D01*
X150167377Y-96359050D01*
X150640950Y-96832623D01*
X151013042Y-97389497D01*
X151269340Y-98008257D01*
X151400000Y-98665128D01*
X151400000Y-99334872D01*
X151269340Y-99991743D01*
X151013042Y-100610503D01*
X150640950Y-101167377D01*
X150167377Y-101640950D01*
X149610503Y-102013042D01*
X148991743Y-102269340D01*
X148334872Y-102400000D01*
X147665128Y-102400000D01*
X147008257Y-102269340D01*
X146389497Y-102013042D01*
X145832623Y-101640950D01*
X145359050Y-101167377D01*
X144986958Y-100610503D01*
X144730660Y-99991743D01*
X144600000Y-99334872D01*
X144600000Y-98665128D01*
X144730660Y-98008257D01*
X144986958Y-97389497D01*
X145359050Y-96832623D01*
X145832623Y-96359050D01*
X146389497Y-95986958D01*
X147008257Y-95730660D01*
X147665128Y-95600000D01*
X148334872Y-95600000D01*
X148991743Y-95730660D01*
X148991743Y-95730660D01*
G37*
G36*
X141975000Y-97025000D02*
X140075000Y-97025000D01*
X140075000Y-94675000D01*
X141975000Y-94675000D01*
X141975000Y-97025000D01*
X141975000Y-97025000D01*
G37*
G36*
X152780000Y-96475000D02*
X151320000Y-96475000D01*
X151320000Y-94625000D01*
X151317598Y-94600614D01*
X151310485Y-94577165D01*
X151298934Y-94555554D01*
X151283388Y-94536612D01*
X151264446Y-94521066D01*
X151242835Y-94509515D01*
X151219386Y-94502402D01*
X151195000Y-94500000D01*
X149125000Y-94500000D01*
X149125000Y-93600000D01*
X151195000Y-93600000D01*
X151219386Y-93597598D01*
X151242835Y-93590485D01*
X151264446Y-93578934D01*
X151283388Y-93563388D01*
X151298934Y-93544446D01*
X151309328Y-93525000D01*
X152780000Y-93525000D01*
X152780000Y-96475000D01*
X152780000Y-96475000D01*
G37*
G36*
X154980000Y-96475000D02*
X153520000Y-96475000D01*
X153520000Y-95425000D01*
X154980000Y-95425000D01*
X154980000Y-96475000D01*
X154980000Y-96475000D01*
G37*
G36*
X138628707Y-92497597D02*
X138705836Y-92505193D01*
X138837787Y-92545220D01*
X138903763Y-92565233D01*
X139086172Y-92662733D01*
X139246054Y-92793946D01*
X139377267Y-92953828D01*
X139474767Y-93136237D01*
X139474767Y-93136238D01*
X139534807Y-93334164D01*
X139555080Y-93540000D01*
X139534807Y-93745836D01*
X139494780Y-93877787D01*
X139474767Y-93943763D01*
X139377267Y-94126172D01*
X139246054Y-94286054D01*
X139086172Y-94417267D01*
X138903763Y-94514767D01*
X138837787Y-94534780D01*
X138705836Y-94574807D01*
X138628707Y-94582403D01*
X138551580Y-94590000D01*
X138448420Y-94590000D01*
X138371293Y-94582403D01*
X138294164Y-94574807D01*
X138162213Y-94534780D01*
X138096237Y-94514767D01*
X137913828Y-94417267D01*
X137753946Y-94286054D01*
X137622733Y-94126172D01*
X137525233Y-93943763D01*
X137505220Y-93877787D01*
X137465193Y-93745836D01*
X137444920Y-93540000D01*
X137465193Y-93334164D01*
X137525233Y-93136238D01*
X137525233Y-93136237D01*
X137622733Y-92953828D01*
X137753946Y-92793946D01*
X137913828Y-92662733D01*
X138096237Y-92565233D01*
X138162213Y-92545220D01*
X138294164Y-92505193D01*
X138371293Y-92497596D01*
X138448420Y-92490000D01*
X138551580Y-92490000D01*
X138628707Y-92497597D01*
X138628707Y-92497597D01*
G37*
G36*
X136088707Y-92497597D02*
X136165836Y-92505193D01*
X136297787Y-92545220D01*
X136363763Y-92565233D01*
X136546172Y-92662733D01*
X136706054Y-92793946D01*
X136837267Y-92953828D01*
X136934767Y-93136237D01*
X136934767Y-93136238D01*
X136994807Y-93334164D01*
X137015080Y-93540000D01*
X136994807Y-93745836D01*
X136954780Y-93877787D01*
X136934767Y-93943763D01*
X136837267Y-94126172D01*
X136706054Y-94286054D01*
X136546172Y-94417267D01*
X136363763Y-94514767D01*
X136297787Y-94534780D01*
X136165836Y-94574807D01*
X136088707Y-94582403D01*
X136011580Y-94590000D01*
X135908420Y-94590000D01*
X135831293Y-94582403D01*
X135754164Y-94574807D01*
X135622213Y-94534780D01*
X135556237Y-94514767D01*
X135373828Y-94417267D01*
X135213946Y-94286054D01*
X135082733Y-94126172D01*
X134985233Y-93943763D01*
X134965220Y-93877787D01*
X134925193Y-93745836D01*
X134904920Y-93540000D01*
X134925193Y-93334164D01*
X134985233Y-93136238D01*
X134985233Y-93136237D01*
X135082733Y-92953828D01*
X135213946Y-92793946D01*
X135373828Y-92662733D01*
X135556237Y-92565233D01*
X135622213Y-92545220D01*
X135754164Y-92505193D01*
X135831293Y-92497596D01*
X135908420Y-92490000D01*
X136011580Y-92490000D01*
X136088707Y-92497597D01*
X136088707Y-92497597D01*
G37*
G36*
X157225000Y-94375000D02*
X155105000Y-94375000D01*
X155080614Y-94377402D01*
X155057165Y-94384515D01*
X155035554Y-94396066D01*
X155016612Y-94411612D01*
X155001066Y-94430554D01*
X154989515Y-94452165D01*
X154982402Y-94475614D01*
X154980000Y-94500000D01*
X154980000Y-94575000D01*
X153520000Y-94575000D01*
X153520000Y-93525000D01*
X155000000Y-93525000D01*
X155024386Y-93522598D01*
X155047835Y-93515485D01*
X155069446Y-93503934D01*
X155088388Y-93488388D01*
X155099376Y-93475000D01*
X157225000Y-93475000D01*
X157225000Y-94375000D01*
X157225000Y-94375000D01*
G37*
G36*
X147275000Y-94375000D02*
X145375000Y-94375000D01*
X145375000Y-92025000D01*
X147275000Y-92025000D01*
X147275000Y-94375000D01*
X147275000Y-94375000D01*
G37*
G36*
X145100000Y-93355000D02*
X142100000Y-93355000D01*
X142075614Y-93357402D01*
X142052165Y-93364515D01*
X142030554Y-93376066D01*
X142011612Y-93391612D01*
X141996066Y-93410554D01*
X141984515Y-93432165D01*
X141977402Y-93455614D01*
X141975000Y-93480000D01*
X141975000Y-94275000D01*
X140075000Y-94275000D01*
X140075000Y-91925000D01*
X142025000Y-91925000D01*
X142049386Y-91922598D01*
X142072835Y-91915485D01*
X142094446Y-91903934D01*
X142105332Y-91895000D01*
X145100000Y-91895000D01*
X145100000Y-93355000D01*
X145100000Y-93355000D01*
G37*
G36*
X152975000Y-92150000D02*
X151275000Y-92150000D01*
X151275000Y-91150000D01*
X152975000Y-91150000D01*
X152975000Y-92150000D01*
X152975000Y-92150000D01*
G37*
G36*
X156300000Y-92125000D02*
X154600000Y-92125000D01*
X154600000Y-91125000D01*
X156300000Y-91125000D01*
X156300000Y-92125000D01*
X156300000Y-92125000D01*
G37*
G36*
X136088707Y-89957596D02*
X136165836Y-89965193D01*
X136297787Y-90005220D01*
X136363763Y-90025233D01*
X136546172Y-90122733D01*
X136706054Y-90253946D01*
X136837267Y-90413828D01*
X136934767Y-90596237D01*
X136934767Y-90596238D01*
X136994807Y-90794164D01*
X137015080Y-91000000D01*
X136994807Y-91205836D01*
X136954780Y-91337787D01*
X136934767Y-91403763D01*
X136837267Y-91586172D01*
X136706054Y-91746054D01*
X136546172Y-91877267D01*
X136363763Y-91974767D01*
X136297787Y-91994780D01*
X136165836Y-92034807D01*
X136088707Y-92042403D01*
X136011580Y-92050000D01*
X135908420Y-92050000D01*
X135831293Y-92042403D01*
X135754164Y-92034807D01*
X135622213Y-91994780D01*
X135556237Y-91974767D01*
X135373828Y-91877267D01*
X135213946Y-91746054D01*
X135082733Y-91586172D01*
X134985233Y-91403763D01*
X134965220Y-91337787D01*
X134925193Y-91205836D01*
X134904920Y-91000000D01*
X134925193Y-90794164D01*
X134985233Y-90596238D01*
X134985233Y-90596237D01*
X135082733Y-90413828D01*
X135213946Y-90253946D01*
X135373828Y-90122733D01*
X135556237Y-90025233D01*
X135622213Y-90005220D01*
X135754164Y-89965193D01*
X135831293Y-89957596D01*
X135908420Y-89950000D01*
X136011580Y-89950000D01*
X136088707Y-89957596D01*
X136088707Y-89957596D01*
G37*
G36*
X139550000Y-92050000D02*
X137450000Y-92050000D01*
X137450000Y-89950000D01*
X139550000Y-89950000D01*
X139550000Y-92050000D01*
X139550000Y-92050000D01*
G37*
G36*
X148700000Y-92025000D02*
X147800000Y-92025000D01*
X147800000Y-89925000D01*
X148700000Y-89925000D01*
X148700000Y-92025000D01*
X148700000Y-92025000D01*
G37*
G36*
X147275000Y-91625000D02*
X145375000Y-91625000D01*
X145375000Y-89275000D01*
X147275000Y-89275000D01*
X147275000Y-91625000D01*
X147275000Y-91625000D01*
G37*
G36*
X145100000Y-91155000D02*
X144050000Y-91155000D01*
X144050000Y-89695000D01*
X145100000Y-89695000D01*
X145100000Y-91155000D01*
X145100000Y-91155000D01*
G37*
G36*
X143200000Y-91155000D02*
X142150000Y-91155000D01*
X142150000Y-89695000D01*
X143200000Y-89695000D01*
X143200000Y-91155000D01*
X143200000Y-91155000D01*
G37*
G36*
X162050000Y-91050000D02*
X159950000Y-91050000D01*
X159950000Y-88950000D01*
X162050000Y-88950000D01*
X162050000Y-91050000D01*
X162050000Y-91050000D01*
G37*
G36*
X155100000Y-90850000D02*
X153900000Y-90850000D01*
X153900000Y-89550000D01*
X155100000Y-89550000D01*
X155100000Y-90850000D01*
X155100000Y-90850000D01*
G37*
G36*
X157000000Y-90850000D02*
X155800000Y-90850000D01*
X155800000Y-89550000D01*
X157000000Y-89550000D01*
X157000000Y-90850000D01*
X157000000Y-90850000D01*
G37*
G36*
X151675000Y-90850000D02*
X150475000Y-90850000D01*
X150475000Y-89550000D01*
X151675000Y-89550000D01*
X151675000Y-90850000D01*
X151675000Y-90850000D01*
G37*
G36*
X153575000Y-90850000D02*
X152375000Y-90850000D01*
X152375000Y-89550000D01*
X153575000Y-89550000D01*
X153575000Y-90850000D01*
X153575000Y-90850000D01*
G37*
G36*
X156650000Y-87475000D02*
X156175000Y-87475000D01*
X156150614Y-87477402D01*
X156127165Y-87484515D01*
X156105554Y-87496066D01*
X156086612Y-87511612D01*
X156071066Y-87530554D01*
X156059515Y-87552165D01*
X156052402Y-87575614D01*
X156050000Y-87600000D01*
X156050000Y-88850000D01*
X154850000Y-88850000D01*
X154850000Y-87547412D01*
X154872835Y-87540485D01*
X154894446Y-87528934D01*
X154913388Y-87513388D01*
X154928934Y-87494446D01*
X154940485Y-87472835D01*
X154947598Y-87449386D01*
X154950000Y-87425000D01*
X154950000Y-85425000D01*
X156650000Y-85425000D01*
X156650000Y-87475000D01*
X156650000Y-87475000D01*
G37*
G36*
X152646066Y-87555554D02*
X152634515Y-87577165D01*
X152627402Y-87600614D01*
X152625000Y-87625000D01*
X152625000Y-88850000D01*
X151425000Y-88850000D01*
X151425000Y-87550000D01*
X152650000Y-87550000D01*
X152650679Y-87549933D01*
X152646066Y-87555554D01*
X152646066Y-87555554D01*
G37*
G36*
X161128707Y-86417596D02*
X161205836Y-86425193D01*
X161337787Y-86465220D01*
X161403763Y-86485233D01*
X161586172Y-86582733D01*
X161746054Y-86713946D01*
X161877267Y-86873828D01*
X161974767Y-87056237D01*
X161974767Y-87056238D01*
X162034807Y-87254164D01*
X162055080Y-87460000D01*
X162034807Y-87665836D01*
X161994780Y-87797787D01*
X161974767Y-87863763D01*
X161877267Y-88046172D01*
X161746054Y-88206054D01*
X161586172Y-88337267D01*
X161403763Y-88434767D01*
X161337787Y-88454780D01*
X161205836Y-88494807D01*
X161128707Y-88502403D01*
X161051580Y-88510000D01*
X160948420Y-88510000D01*
X160871293Y-88502403D01*
X160794164Y-88494807D01*
X160662213Y-88454780D01*
X160596237Y-88434767D01*
X160413828Y-88337267D01*
X160253946Y-88206054D01*
X160122733Y-88046172D01*
X160025233Y-87863763D01*
X160005220Y-87797787D01*
X159965193Y-87665836D01*
X159944920Y-87460000D01*
X159965193Y-87254164D01*
X160025233Y-87056238D01*
X160025233Y-87056237D01*
X160122733Y-86873828D01*
X160253946Y-86713946D01*
X160413828Y-86582733D01*
X160596237Y-86485233D01*
X160662213Y-86465220D01*
X160794164Y-86425193D01*
X160871293Y-86417596D01*
X160948420Y-86410000D01*
X161051580Y-86410000D01*
X161128707Y-86417596D01*
X161128707Y-86417596D01*
G37*
G36*
X138628707Y-85537596D02*
X138705836Y-85545193D01*
X138837787Y-85585220D01*
X138903763Y-85605233D01*
X139086172Y-85702733D01*
X139246054Y-85833946D01*
X139377267Y-85993828D01*
X139474767Y-86176237D01*
X139474767Y-86176238D01*
X139534807Y-86374164D01*
X139555080Y-86580000D01*
X139534807Y-86785836D01*
X139508115Y-86873828D01*
X139474767Y-86983763D01*
X139377267Y-87166172D01*
X139246054Y-87326054D01*
X139086172Y-87457267D01*
X138903763Y-87554767D01*
X138837787Y-87574780D01*
X138705836Y-87614807D01*
X138628707Y-87622404D01*
X138551580Y-87630000D01*
X138448420Y-87630000D01*
X138371293Y-87622404D01*
X138294164Y-87614807D01*
X138162213Y-87574780D01*
X138096237Y-87554767D01*
X137913828Y-87457267D01*
X137753946Y-87326054D01*
X137622733Y-87166172D01*
X137525233Y-86983763D01*
X137491885Y-86873828D01*
X137465193Y-86785836D01*
X137444920Y-86580000D01*
X137465193Y-86374164D01*
X137525233Y-86176238D01*
X137525233Y-86176237D01*
X137622733Y-85993828D01*
X137753946Y-85833946D01*
X137913828Y-85702733D01*
X138096237Y-85605233D01*
X138162213Y-85585220D01*
X138294164Y-85545193D01*
X138371293Y-85537596D01*
X138448420Y-85530000D01*
X138551580Y-85530000D01*
X138628707Y-85537596D01*
X138628707Y-85537596D01*
G37*
G36*
X136088707Y-85537596D02*
X136165836Y-85545193D01*
X136297787Y-85585220D01*
X136363763Y-85605233D01*
X136546172Y-85702733D01*
X136706054Y-85833946D01*
X136837267Y-85993828D01*
X136934767Y-86176237D01*
X136934767Y-86176238D01*
X136994807Y-86374164D01*
X137015080Y-86580000D01*
X136994807Y-86785836D01*
X136968115Y-86873828D01*
X136934767Y-86983763D01*
X136837267Y-87166172D01*
X136706054Y-87326054D01*
X136546172Y-87457267D01*
X136363763Y-87554767D01*
X136297787Y-87574780D01*
X136165836Y-87614807D01*
X136088707Y-87622404D01*
X136011580Y-87630000D01*
X135908420Y-87630000D01*
X135831293Y-87622404D01*
X135754164Y-87614807D01*
X135622213Y-87574780D01*
X135556237Y-87554767D01*
X135373828Y-87457267D01*
X135213946Y-87326054D01*
X135082733Y-87166172D01*
X134985233Y-86983763D01*
X134951885Y-86873828D01*
X134925193Y-86785836D01*
X134904920Y-86580000D01*
X134925193Y-86374164D01*
X134985233Y-86176238D01*
X134985233Y-86176237D01*
X135082733Y-85993828D01*
X135213946Y-85833946D01*
X135373828Y-85702733D01*
X135556237Y-85605233D01*
X135622213Y-85585220D01*
X135754164Y-85545193D01*
X135831293Y-85537596D01*
X135908420Y-85530000D01*
X136011580Y-85530000D01*
X136088707Y-85537596D01*
X136088707Y-85537596D01*
G37*
G36*
X154475000Y-87500000D02*
X152750000Y-87500000D01*
X152749321Y-87500067D01*
X152753934Y-87494446D01*
X152765485Y-87472835D01*
X152772598Y-87449386D01*
X152775000Y-87425000D01*
X152775000Y-85450000D01*
X154475000Y-85450000D01*
X154475000Y-87500000D01*
X154475000Y-87500000D01*
G37*
G36*
X148475000Y-86955000D02*
X146525000Y-86955000D01*
X146525000Y-85955000D01*
X148475000Y-85955000D01*
X148475000Y-86955000D01*
X148475000Y-86955000D01*
G37*
G36*
X143075000Y-86955000D02*
X141125000Y-86955000D01*
X141125000Y-85955000D01*
X143075000Y-85955000D01*
X143075000Y-86955000D01*
X143075000Y-86955000D01*
G37*
G36*
X161128707Y-83877597D02*
X161205836Y-83885193D01*
X161337787Y-83925220D01*
X161403763Y-83945233D01*
X161586172Y-84042733D01*
X161746054Y-84173946D01*
X161877267Y-84333828D01*
X161974767Y-84516237D01*
X161974767Y-84516238D01*
X162034807Y-84714164D01*
X162055080Y-84920000D01*
X162034807Y-85125836D01*
X161994780Y-85257787D01*
X161974767Y-85323763D01*
X161877267Y-85506172D01*
X161746054Y-85666054D01*
X161586172Y-85797267D01*
X161403763Y-85894767D01*
X161337787Y-85914780D01*
X161205836Y-85954807D01*
X161128707Y-85962403D01*
X161051580Y-85970000D01*
X160948420Y-85970000D01*
X160871293Y-85962403D01*
X160794164Y-85954807D01*
X160662213Y-85914780D01*
X160596237Y-85894767D01*
X160413828Y-85797267D01*
X160253946Y-85666054D01*
X160122733Y-85506172D01*
X160025233Y-85323763D01*
X160005220Y-85257787D01*
X159965193Y-85125836D01*
X159944920Y-84920000D01*
X159965193Y-84714164D01*
X160025233Y-84516238D01*
X160025233Y-84516237D01*
X160122733Y-84333828D01*
X160253946Y-84173946D01*
X160413828Y-84042733D01*
X160596237Y-83945233D01*
X160662213Y-83925220D01*
X160794164Y-83885193D01*
X160871293Y-83877597D01*
X160948420Y-83870000D01*
X161051580Y-83870000D01*
X161128707Y-83877597D01*
X161128707Y-83877597D01*
G37*
G36*
X143075000Y-85685000D02*
X141125000Y-85685000D01*
X141125000Y-84685000D01*
X143075000Y-84685000D01*
X143075000Y-85685000D01*
X143075000Y-85685000D01*
G37*
G36*
X148475000Y-85685000D02*
X146525000Y-85685000D01*
X146525000Y-84685000D01*
X148475000Y-84685000D01*
X148475000Y-85685000D01*
X148475000Y-85685000D01*
G37*
G36*
X138628707Y-82997596D02*
X138705836Y-83005193D01*
X138837787Y-83045220D01*
X138903763Y-83065233D01*
X139086172Y-83162733D01*
X139246054Y-83293946D01*
X139377267Y-83453828D01*
X139474767Y-83636237D01*
X139474767Y-83636238D01*
X139534807Y-83834164D01*
X139555080Y-84040000D01*
X139534807Y-84245836D01*
X139508115Y-84333828D01*
X139474767Y-84443763D01*
X139377267Y-84626172D01*
X139246054Y-84786054D01*
X139086172Y-84917267D01*
X138903763Y-85014767D01*
X138837787Y-85034780D01*
X138705836Y-85074807D01*
X138628707Y-85082403D01*
X138551580Y-85090000D01*
X138448420Y-85090000D01*
X138371293Y-85082403D01*
X138294164Y-85074807D01*
X138162213Y-85034780D01*
X138096237Y-85014767D01*
X137913828Y-84917267D01*
X137753946Y-84786054D01*
X137622733Y-84626172D01*
X137525233Y-84443763D01*
X137491885Y-84333828D01*
X137465193Y-84245836D01*
X137444920Y-84040000D01*
X137465193Y-83834164D01*
X137525233Y-83636238D01*
X137525233Y-83636237D01*
X137622733Y-83453828D01*
X137753946Y-83293946D01*
X137913828Y-83162733D01*
X138096237Y-83065233D01*
X138162213Y-83045220D01*
X138294164Y-83005193D01*
X138371293Y-82997596D01*
X138448420Y-82990000D01*
X138551580Y-82990000D01*
X138628707Y-82997596D01*
X138628707Y-82997596D01*
G37*
G36*
X136088707Y-82997596D02*
X136165836Y-83005193D01*
X136297787Y-83045220D01*
X136363763Y-83065233D01*
X136546172Y-83162733D01*
X136706054Y-83293946D01*
X136837267Y-83453828D01*
X136934767Y-83636237D01*
X136934767Y-83636238D01*
X136994807Y-83834164D01*
X137015080Y-84040000D01*
X136994807Y-84245836D01*
X136968115Y-84333828D01*
X136934767Y-84443763D01*
X136837267Y-84626172D01*
X136706054Y-84786054D01*
X136546172Y-84917267D01*
X136363763Y-85014767D01*
X136297787Y-85034780D01*
X136165836Y-85074807D01*
X136088707Y-85082403D01*
X136011580Y-85090000D01*
X135908420Y-85090000D01*
X135831293Y-85082403D01*
X135754164Y-85074807D01*
X135622213Y-85034780D01*
X135556237Y-85014767D01*
X135373828Y-84917267D01*
X135213946Y-84786054D01*
X135082733Y-84626172D01*
X134985233Y-84443763D01*
X134951885Y-84333828D01*
X134925193Y-84245836D01*
X134904920Y-84040000D01*
X134925193Y-83834164D01*
X134985233Y-83636238D01*
X134985233Y-83636237D01*
X135082733Y-83453828D01*
X135213946Y-83293946D01*
X135373828Y-83162733D01*
X135556237Y-83065233D01*
X135622213Y-83045220D01*
X135754164Y-83005193D01*
X135831293Y-82997596D01*
X135908420Y-82990000D01*
X136011580Y-82990000D01*
X136088707Y-82997596D01*
X136088707Y-82997596D01*
G37*
G36*
X143075000Y-84415000D02*
X141125000Y-84415000D01*
X141125000Y-83415000D01*
X143075000Y-83415000D01*
X143075000Y-84415000D01*
X143075000Y-84415000D01*
G37*
G36*
X148475000Y-84415000D02*
X146525000Y-84415000D01*
X146525000Y-83415000D01*
X148475000Y-83415000D01*
X148475000Y-84415000D01*
X148475000Y-84415000D01*
G37*
G36*
X159950000Y-75660000D02*
X159175000Y-75660000D01*
X159150614Y-75662402D01*
X159127165Y-75669515D01*
X159105554Y-75681066D01*
X159086612Y-75696612D01*
X159071066Y-75715554D01*
X159059515Y-75737165D01*
X159052402Y-75760614D01*
X159050000Y-75785000D01*
X159050000Y-82375000D01*
X157200000Y-82375000D01*
X157175614Y-82377402D01*
X157152165Y-82384515D01*
X157130554Y-82396066D01*
X157111612Y-82411612D01*
X157096066Y-82430554D01*
X157084515Y-82452165D01*
X157077402Y-82475614D01*
X157075000Y-82500000D01*
X157075000Y-84350000D01*
X150525000Y-84350000D01*
X150525000Y-82500000D01*
X150522598Y-82475614D01*
X150515485Y-82452165D01*
X150503934Y-82430554D01*
X150488388Y-82411612D01*
X150469446Y-82396066D01*
X150447835Y-82384515D01*
X150424386Y-82377402D01*
X150400000Y-82375000D01*
X148600000Y-82375000D01*
X148575614Y-82377402D01*
X148552165Y-82384515D01*
X148530554Y-82396066D01*
X148511612Y-82411612D01*
X148496066Y-82430554D01*
X148484515Y-82452165D01*
X148477402Y-82475614D01*
X148475000Y-82500000D01*
X148475000Y-83145000D01*
X146525000Y-83145000D01*
X146525000Y-82052951D01*
X146527598Y-82044386D01*
X146530000Y-82020000D01*
X146530000Y-81340000D01*
X148425000Y-81340000D01*
X148449386Y-81337598D01*
X148472835Y-81330485D01*
X148494446Y-81318934D01*
X148513388Y-81303388D01*
X148528934Y-81284446D01*
X148540485Y-81262835D01*
X148547598Y-81239386D01*
X148550000Y-81215000D01*
X148550000Y-75975000D01*
X150550000Y-75975000D01*
X150550000Y-82225000D01*
X150552402Y-82249386D01*
X150559515Y-82272835D01*
X150571066Y-82294446D01*
X150586612Y-82313388D01*
X150605554Y-82328934D01*
X150627165Y-82340485D01*
X150650614Y-82347598D01*
X150675000Y-82350000D01*
X156925000Y-82350000D01*
X156949386Y-82347598D01*
X156972835Y-82340485D01*
X156994446Y-82328934D01*
X157013388Y-82313388D01*
X157028934Y-82294446D01*
X157040485Y-82272835D01*
X157047598Y-82249386D01*
X157050000Y-82225000D01*
X157050000Y-75975000D01*
X157047598Y-75950614D01*
X157040485Y-75927165D01*
X157028934Y-75905554D01*
X157013388Y-75886612D01*
X156994446Y-75871066D01*
X156972835Y-75859515D01*
X156949386Y-75852402D01*
X156925000Y-75850000D01*
X150675000Y-75850000D01*
X150650614Y-75852402D01*
X150627165Y-75859515D01*
X150605554Y-75871066D01*
X150586612Y-75886612D01*
X150571066Y-75905554D01*
X150559515Y-75927165D01*
X150552402Y-75950614D01*
X150550000Y-75975000D01*
X148550000Y-75975000D01*
X148550000Y-75825000D01*
X150400000Y-75825000D01*
X150424386Y-75822598D01*
X150447835Y-75815485D01*
X150469446Y-75803934D01*
X150488388Y-75788388D01*
X150503934Y-75769446D01*
X150515485Y-75747835D01*
X150522598Y-75724386D01*
X150525000Y-75700000D01*
X150525000Y-73850000D01*
X157075000Y-73850000D01*
X157075000Y-75700000D01*
X157077402Y-75724386D01*
X157084515Y-75747835D01*
X157096066Y-75769446D01*
X157111612Y-75788388D01*
X157130554Y-75803934D01*
X157152165Y-75815485D01*
X157175614Y-75822598D01*
X157200000Y-75825000D01*
X158925000Y-75825000D01*
X158949386Y-75822598D01*
X158972835Y-75815485D01*
X158994446Y-75803934D01*
X159013388Y-75788388D01*
X159028934Y-75769446D01*
X159040485Y-75747835D01*
X159047598Y-75724386D01*
X159050000Y-75700000D01*
X159050000Y-73560000D01*
X159950000Y-73560000D01*
X159950000Y-75660000D01*
X159950000Y-75660000D01*
G37*
G36*
X161128707Y-81337596D02*
X161205836Y-81345193D01*
X161337787Y-81385220D01*
X161403763Y-81405233D01*
X161586172Y-81502733D01*
X161746054Y-81633946D01*
X161877267Y-81793828D01*
X161974767Y-81976237D01*
X161974767Y-81976238D01*
X162034807Y-82174164D01*
X162055080Y-82380000D01*
X162034807Y-82585836D01*
X161994780Y-82717787D01*
X161974767Y-82783763D01*
X161877267Y-82966172D01*
X161746054Y-83126054D01*
X161586172Y-83257267D01*
X161403763Y-83354767D01*
X161337787Y-83374780D01*
X161205836Y-83414807D01*
X161128707Y-83422403D01*
X161051580Y-83430000D01*
X160948420Y-83430000D01*
X160871293Y-83422403D01*
X160794164Y-83414807D01*
X160662213Y-83374780D01*
X160596237Y-83354767D01*
X160413828Y-83257267D01*
X160253946Y-83126054D01*
X160122733Y-82966172D01*
X160025233Y-82783763D01*
X160005220Y-82717787D01*
X159965193Y-82585836D01*
X159944920Y-82380000D01*
X159965193Y-82174164D01*
X160025233Y-81976238D01*
X160025233Y-81976237D01*
X160122733Y-81793828D01*
X160253946Y-81633946D01*
X160413828Y-81502733D01*
X160596237Y-81405233D01*
X160662213Y-81385220D01*
X160794164Y-81345193D01*
X160871293Y-81337596D01*
X160948420Y-81330000D01*
X161051580Y-81330000D01*
X161128707Y-81337596D01*
X161128707Y-81337596D01*
G37*
G36*
X143075000Y-83145000D02*
X141125000Y-83145000D01*
X141125000Y-82145000D01*
X143075000Y-82145000D01*
X143075000Y-83145000D01*
X143075000Y-83145000D01*
G37*
G36*
X136088707Y-80457597D02*
X136165836Y-80465193D01*
X136297787Y-80505220D01*
X136363763Y-80525233D01*
X136546172Y-80622733D01*
X136706054Y-80753946D01*
X136837267Y-80913828D01*
X136934767Y-81096237D01*
X136934767Y-81096238D01*
X136994807Y-81294164D01*
X137015080Y-81500000D01*
X136994807Y-81705836D01*
X136968115Y-81793828D01*
X136934767Y-81903763D01*
X136837267Y-82086172D01*
X136706054Y-82246054D01*
X136546172Y-82377267D01*
X136363763Y-82474767D01*
X136297787Y-82494780D01*
X136165836Y-82534807D01*
X136088707Y-82542403D01*
X136011580Y-82550000D01*
X135908420Y-82550000D01*
X135831293Y-82542403D01*
X135754164Y-82534807D01*
X135622213Y-82494780D01*
X135556237Y-82474767D01*
X135373828Y-82377267D01*
X135213946Y-82246054D01*
X135082733Y-82086172D01*
X134985233Y-81903763D01*
X134951885Y-81793828D01*
X134925193Y-81705836D01*
X134904920Y-81500000D01*
X134925193Y-81294164D01*
X134985233Y-81096238D01*
X134985233Y-81096237D01*
X135082733Y-80913828D01*
X135213946Y-80753946D01*
X135373828Y-80622733D01*
X135556237Y-80525233D01*
X135622213Y-80505220D01*
X135754164Y-80465193D01*
X135831293Y-80457597D01*
X135908420Y-80450000D01*
X136011580Y-80450000D01*
X136088707Y-80457597D01*
X136088707Y-80457597D01*
G37*
G36*
X139550000Y-82550000D02*
X137450000Y-82550000D01*
X137450000Y-80450000D01*
X139550000Y-80450000D01*
X139550000Y-82550000D01*
X139550000Y-82550000D01*
G37*
G36*
X161128707Y-78797597D02*
X161205836Y-78805193D01*
X161337787Y-78845220D01*
X161403763Y-78865233D01*
X161586172Y-78962733D01*
X161746054Y-79093946D01*
X161877267Y-79253828D01*
X161974767Y-79436237D01*
X161974767Y-79436238D01*
X162034807Y-79634164D01*
X162055080Y-79840000D01*
X162034807Y-80045836D01*
X162013950Y-80114592D01*
X161974767Y-80243763D01*
X161877267Y-80426172D01*
X161746054Y-80586054D01*
X161586172Y-80717267D01*
X161403763Y-80814767D01*
X161337787Y-80834780D01*
X161205836Y-80874807D01*
X161128707Y-80882404D01*
X161051580Y-80890000D01*
X160948420Y-80890000D01*
X160871293Y-80882404D01*
X160794164Y-80874807D01*
X160662213Y-80834780D01*
X160596237Y-80814767D01*
X160413828Y-80717267D01*
X160253946Y-80586054D01*
X160122733Y-80426172D01*
X160025233Y-80243763D01*
X159986050Y-80114592D01*
X159965193Y-80045836D01*
X159944920Y-79840000D01*
X159965193Y-79634164D01*
X160025233Y-79436238D01*
X160025233Y-79436237D01*
X160122733Y-79253828D01*
X160253946Y-79093946D01*
X160413828Y-78962733D01*
X160596237Y-78865233D01*
X160662213Y-78845220D01*
X160794164Y-78805193D01*
X160871293Y-78797597D01*
X160948420Y-78790000D01*
X161051580Y-78790000D01*
X161128707Y-78797597D01*
X161128707Y-78797597D01*
G37*
G36*
X146925000Y-80500000D02*
X144825000Y-80500000D01*
X144825000Y-79600000D01*
X146925000Y-79600000D01*
X146925000Y-80500000D01*
X146925000Y-80500000D01*
G37*
G36*
X147209126Y-77222048D02*
X145578866Y-78590000D01*
X145523829Y-78636181D01*
X145428091Y-78716515D01*
X145428076Y-78716526D01*
X145340513Y-78790000D01*
X144638279Y-79379245D01*
X144631463Y-79386211D01*
X144630554Y-79386697D01*
X144619652Y-79394875D01*
X144334476Y-79634166D01*
X143761927Y-80114592D01*
X142154958Y-78199481D01*
X142940896Y-77540000D01*
X143840255Y-76785348D01*
X143935990Y-76705017D01*
X143936003Y-76705007D01*
X145602157Y-75306937D01*
X147209126Y-77222048D01*
X147209126Y-77222048D01*
G37*
G36*
X136088707Y-76497597D02*
X136165836Y-76505193D01*
X136297787Y-76545220D01*
X136363763Y-76565233D01*
X136546172Y-76662733D01*
X136706054Y-76793946D01*
X136837267Y-76953828D01*
X136934767Y-77136237D01*
X136934767Y-77136238D01*
X136994807Y-77334164D01*
X137015080Y-77540000D01*
X136994807Y-77745836D01*
X136954780Y-77877787D01*
X136934767Y-77943763D01*
X136837267Y-78126172D01*
X136706054Y-78286054D01*
X136546172Y-78417267D01*
X136363763Y-78514767D01*
X136297787Y-78534780D01*
X136165836Y-78574807D01*
X136088707Y-78582404D01*
X136011580Y-78590000D01*
X135908420Y-78590000D01*
X135831293Y-78582404D01*
X135754164Y-78574807D01*
X135622213Y-78534780D01*
X135556237Y-78514767D01*
X135373828Y-78417267D01*
X135213946Y-78286054D01*
X135082733Y-78126172D01*
X134985233Y-77943763D01*
X134965220Y-77877787D01*
X134925193Y-77745836D01*
X134904920Y-77540000D01*
X134925193Y-77334164D01*
X134985233Y-77136238D01*
X134985233Y-77136237D01*
X135082733Y-76953828D01*
X135213946Y-76793946D01*
X135373828Y-76662733D01*
X135556237Y-76565233D01*
X135622213Y-76545220D01*
X135754164Y-76505193D01*
X135831293Y-76497597D01*
X135908420Y-76490000D01*
X136011580Y-76490000D01*
X136088707Y-76497597D01*
X136088707Y-76497597D01*
G37*
G36*
X138628707Y-76497597D02*
X138705836Y-76505193D01*
X138837787Y-76545220D01*
X138903763Y-76565233D01*
X139086172Y-76662733D01*
X139246054Y-76793946D01*
X139377267Y-76953828D01*
X139474767Y-77136237D01*
X139474767Y-77136238D01*
X139534807Y-77334164D01*
X139555080Y-77540000D01*
X139534807Y-77745836D01*
X139494780Y-77877787D01*
X139474767Y-77943763D01*
X139377267Y-78126172D01*
X139246054Y-78286054D01*
X139086172Y-78417267D01*
X138903763Y-78514767D01*
X138837787Y-78534780D01*
X138705836Y-78574807D01*
X138628707Y-78582404D01*
X138551580Y-78590000D01*
X138448420Y-78590000D01*
X138371293Y-78582404D01*
X138294164Y-78574807D01*
X138162213Y-78534780D01*
X138096237Y-78514767D01*
X137913828Y-78417267D01*
X137753946Y-78286054D01*
X137622733Y-78126172D01*
X137525233Y-77943763D01*
X137505220Y-77877787D01*
X137465193Y-77745836D01*
X137444920Y-77540000D01*
X137465193Y-77334164D01*
X137525233Y-77136238D01*
X137525233Y-77136237D01*
X137622733Y-76953828D01*
X137753946Y-76793946D01*
X137913828Y-76662733D01*
X138096237Y-76565233D01*
X138162213Y-76545220D01*
X138294164Y-76505193D01*
X138371293Y-76497597D01*
X138448420Y-76490000D01*
X138551580Y-76490000D01*
X138628707Y-76497597D01*
X138628707Y-76497597D01*
G37*
G36*
X161128707Y-76257597D02*
X161205836Y-76265193D01*
X161337787Y-76305220D01*
X161403763Y-76325233D01*
X161586172Y-76422733D01*
X161746054Y-76553946D01*
X161877267Y-76713828D01*
X161974767Y-76896237D01*
X161974767Y-76896238D01*
X162034807Y-77094164D01*
X162055080Y-77300000D01*
X162034807Y-77505836D01*
X162024443Y-77540000D01*
X161974767Y-77703763D01*
X161877267Y-77886172D01*
X161746054Y-78046054D01*
X161586172Y-78177267D01*
X161403763Y-78274767D01*
X161366554Y-78286054D01*
X161205836Y-78334807D01*
X161128707Y-78342404D01*
X161051580Y-78350000D01*
X160948420Y-78350000D01*
X160871293Y-78342404D01*
X160794164Y-78334807D01*
X160633446Y-78286054D01*
X160596237Y-78274767D01*
X160413828Y-78177267D01*
X160253946Y-78046054D01*
X160122733Y-77886172D01*
X160025233Y-77703763D01*
X159975557Y-77540000D01*
X159965193Y-77505836D01*
X159944920Y-77300000D01*
X159965193Y-77094164D01*
X160025233Y-76896238D01*
X160025233Y-76896237D01*
X160122733Y-76713828D01*
X160253946Y-76553946D01*
X160413828Y-76422733D01*
X160596237Y-76325233D01*
X160662213Y-76305220D01*
X160794164Y-76265193D01*
X160871293Y-76257597D01*
X160948420Y-76250000D01*
X161051580Y-76250000D01*
X161128707Y-76257597D01*
X161128707Y-76257597D01*
G37*
G36*
X144604244Y-74117670D02*
X144621760Y-74134808D01*
X144642281Y-74148198D01*
X144665021Y-74157328D01*
X144689106Y-74161846D01*
X144713608Y-74161579D01*
X144737588Y-74156537D01*
X144760124Y-74146913D01*
X144780348Y-74133078D01*
X144797486Y-74115562D01*
X144810876Y-74095041D01*
X144820006Y-74072301D01*
X144825000Y-74037322D01*
X144825000Y-73600000D01*
X146925000Y-73600000D01*
X146925000Y-74500000D01*
X145193120Y-74500000D01*
X145168734Y-74502402D01*
X145145285Y-74509515D01*
X145123674Y-74521066D01*
X145104732Y-74536612D01*
X145089186Y-74555554D01*
X145077635Y-74577165D01*
X145070522Y-74600614D01*
X145068120Y-74625000D01*
X145070522Y-74649386D01*
X145077635Y-74672835D01*
X145089186Y-74694446D01*
X145097363Y-74705347D01*
X145345042Y-75000519D01*
X143659745Y-76414652D01*
X143564010Y-76494983D01*
X143563997Y-76494993D01*
X141897843Y-77893063D01*
X140290874Y-75977952D01*
X141976171Y-74563819D01*
X142071906Y-74483488D01*
X142071919Y-74483478D01*
X143738073Y-73085408D01*
X144604244Y-74117670D01*
X144604244Y-74117670D01*
G37*
G36*
X136088707Y-73957596D02*
X136165836Y-73965193D01*
X136297787Y-74005220D01*
X136363763Y-74025233D01*
X136546172Y-74122733D01*
X136706054Y-74253946D01*
X136837267Y-74413828D01*
X136934767Y-74596237D01*
X136943492Y-74625000D01*
X136994807Y-74794164D01*
X137015080Y-75000000D01*
X136994807Y-75205836D01*
X136964138Y-75306937D01*
X136934767Y-75403763D01*
X136837267Y-75586172D01*
X136706054Y-75746054D01*
X136546172Y-75877267D01*
X136363763Y-75974767D01*
X136297787Y-75994780D01*
X136165836Y-76034807D01*
X136088707Y-76042404D01*
X136011580Y-76050000D01*
X135908420Y-76050000D01*
X135831293Y-76042404D01*
X135754164Y-76034807D01*
X135622213Y-75994780D01*
X135556237Y-75974767D01*
X135373828Y-75877267D01*
X135213946Y-75746054D01*
X135082733Y-75586172D01*
X134985233Y-75403763D01*
X134955862Y-75306937D01*
X134925193Y-75205836D01*
X134904920Y-75000000D01*
X134925193Y-74794164D01*
X134976508Y-74625000D01*
X134985233Y-74596237D01*
X135082733Y-74413828D01*
X135213946Y-74253946D01*
X135373828Y-74122733D01*
X135556237Y-74025233D01*
X135622213Y-74005220D01*
X135754164Y-73965193D01*
X135831293Y-73957596D01*
X135908420Y-73950000D01*
X136011580Y-73950000D01*
X136088707Y-73957596D01*
X136088707Y-73957596D01*
G37*
G36*
X139550000Y-76050000D02*
X137450000Y-76050000D01*
X137450000Y-73950000D01*
X139550000Y-73950000D01*
X139550000Y-76050000D01*
X139550000Y-76050000D01*
G37*
G36*
X148991743Y-66730660D02*
X149610503Y-66986958D01*
X150167377Y-67359050D01*
X150640950Y-67832623D01*
X151013042Y-68389497D01*
X151269340Y-69008257D01*
X151400000Y-69665128D01*
X151400000Y-70334872D01*
X151269340Y-70991743D01*
X151013042Y-71610503D01*
X150640950Y-72167377D01*
X150167377Y-72640950D01*
X149610503Y-73013042D01*
X148991743Y-73269340D01*
X148334872Y-73400000D01*
X147665128Y-73400000D01*
X147008257Y-73269340D01*
X146389497Y-73013042D01*
X145832623Y-72640950D01*
X145359050Y-72167377D01*
X144986958Y-71610503D01*
X144730660Y-70991743D01*
X144600000Y-70334872D01*
X144600000Y-69665128D01*
X144730660Y-69008257D01*
X144986958Y-68389497D01*
X145359050Y-67832623D01*
X145832623Y-67359050D01*
X146389497Y-66986958D01*
X147008257Y-66730660D01*
X147665128Y-66600000D01*
X148334872Y-66600000D01*
X148991743Y-66730660D01*
X148991743Y-66730660D01*
G37*
M02*
